<mxfile host="app.diagrams.net" modified="2024-02-04T10:59:47.367Z" agent="Mozilla/5.0 (Windows NT 10.0; Win64; x64) AppleWebKit/537.36 (KHTML, like Gecko) Chrome/121.0.0.0 Safari/537.36" etag="fzO7c6Qnv5EmwzjoFlS3" version="23.1.1" type="github">
  <diagram name="第 1 页" id="uOJliRI_XcHkOeCJj4IB">
    <mxGraphModel dx="1050" dy="530" grid="1" gridSize="10" guides="1" tooltips="1" connect="1" arrows="1" fold="1" page="1" pageScale="1" pageWidth="827" pageHeight="1169" math="0" shadow="0">
      <root>
        <mxCell id="0" />
        <mxCell id="1" parent="0" />
        <mxCell id="aDwwgYa0b5BabqoOl6Sl-2" value="" style="endArrow=classic;html=1;rounded=0;" parent="1" edge="1">
          <mxGeometry width="50" height="50" relative="1" as="geometry">
            <mxPoint x="80" y="130.5" as="sourcePoint" />
            <mxPoint x="140" y="130" as="targetPoint" />
          </mxGeometry>
        </mxCell>
        <mxCell id="aDwwgYa0b5BabqoOl6Sl-3" value="" style="rounded=0;whiteSpace=wrap;html=1;" parent="1" vertex="1">
          <mxGeometry x="160" y="70" width="360" height="150" as="geometry" />
        </mxCell>
        <mxCell id="aDwwgYa0b5BabqoOl6Sl-4" value="" style="endArrow=classic;html=1;rounded=0;" parent="1" edge="1">
          <mxGeometry width="50" height="50" relative="1" as="geometry">
            <mxPoint x="540" y="132.25" as="sourcePoint" />
            <mxPoint x="600" y="131.75" as="targetPoint" />
          </mxGeometry>
        </mxCell>
        <mxCell id="aDwwgYa0b5BabqoOl6Sl-5" value="" style="endArrow=classic;html=1;rounded=0;" parent="1" edge="1">
          <mxGeometry width="50" height="50" relative="1" as="geometry">
            <mxPoint x="600" y="157.25" as="sourcePoint" />
            <mxPoint x="540" y="157.25" as="targetPoint" />
          </mxGeometry>
        </mxCell>
        <mxCell id="aDwwgYa0b5BabqoOl6Sl-6" value="" style="endArrow=classic;html=1;rounded=0;" parent="1" edge="1">
          <mxGeometry width="50" height="50" relative="1" as="geometry">
            <mxPoint x="140" y="155.5" as="sourcePoint" />
            <mxPoint x="80" y="155.5" as="targetPoint" />
          </mxGeometry>
        </mxCell>
        <mxCell id="aDwwgYa0b5BabqoOl6Sl-7" value="middlewares" style="text;html=1;strokeColor=none;fillColor=none;align=center;verticalAlign=middle;whiteSpace=wrap;rounded=0;" parent="1" vertex="1">
          <mxGeometry x="305" y="80" width="60" height="30" as="geometry" />
        </mxCell>
        <mxCell id="aDwwgYa0b5BabqoOl6Sl-20" value="...." style="text;html=1;strokeColor=none;fillColor=none;align=center;verticalAlign=middle;whiteSpace=wrap;rounded=0;fontStyle=1" parent="1" vertex="1">
          <mxGeometry x="445" y="150" width="60" height="30" as="geometry" />
        </mxCell>
        <mxCell id="SUEe3mXOdW9LNbR-s6AG-1" value="" style="shape=image;verticalLabelPosition=bottom;labelBackgroundColor=default;verticalAlign=top;aspect=fixed;imageAspect=0;image=data:image/png,iVBORw0KGgoAAAANSUhEUgAAAMgAAADICAYAAACtWK6eAAAAAXNSR0IArs4c6QAAGm5JREFUeF7tnQn8dls1x1cKhdwriWvIkJAKJUMooriGhBSKQmUoyXQVImXK2NWARBNu6KIyVSqUZEgTUSF1DemKbrhxDeV8/875v8/7vM/znP1be53hOWetz+f/uX169/jbzzp777XX+q2rWUoikAjsReBqiU0ikAjsRyAVJH8dicABBFJB8ueRCKSC5G8gEfAhkDuID7estRIEUkFWstA5TR8CqSA+3LLWShBIBVnJQuc0fQikgvhwy1orQSAVZCULndP0IZAK4sMta60EgVSQlSx0TtOHQCqID7estRIEUkFWstA5TR8CqSA+3LLWShBIBVnJQuc0fQikgvhwy1orQSAVZCULndP0IZAK4sMta60EgVSQlSx0TtOHQCqID7estRIEUkFWstA5TR8CqSA+3LLWShBIBVnJQuc0fQikgvhwy1orQSAVZCULndP0IZAK4sMta60EgVSQlSx0TtOHQCqID7estRIEUkFWstA5TR8CqSA+3LLWShBIBVnJQuc0fQikgvhwy1orQSAVZCULndP0IZAK4sMta60EgVSQlSx0TtOHQCqID7estRIEUkFWstA5TR8CqSA+3LLWShBIBVnJQuc0fQikgvhwy1orQSAVZCULndP0IZAK4sMta60EgVSQlSx0TtOHwFoU5NpmdoGZvaeZ/X3792YfZIPVup6Zva+ZXWFml5nZVYP1tIyG397Mrm9m55vZa83s8iGmtTQFeS8zu5mZfYyZfUKrECgGCrItb2wV5S/M7JfN7HfM7B+HALmnzS8zs7uY2W03yv2tmf2AmT1ygvEcQ5ff2azdvdr17cb7LDO7pPnIPC5yAktQkA81sy82s89sfugfVgnOk83szpVtKNV/u1HMTzpQ4cujF1wZ3EzLfp2ZPezA2J5iZp8bNfZjVpDbmdldW+W4ehQgZjaWknDU48h3SF5sZjcPnNsSmnpRe0o4NJefNLOvjJjsMSrIOzY/LADgWDKUPMLMvnaoxs3sR8zs6wva557EfFPOIHBlc/x8hwJA7tHcUR5bUO5gkWNTkM82syc2W+x5tRPvqf9XZnbDgfroOyJsdvvXZvaBA43jWJt9qzBwThncTdxyTApyv8ZicbF7pnrFDzezl+nVDta4hZk9Z4/RYFdFvoB8CVPOIPD7ZnbLQkD+xMxQEgwyLjkWBfmU2i+BAx3uB69z1DtU5TfM7NOFNrFsPVsov4aidzKzXxQmWnUfOQYF+ejmR/WHAiARRV9uZjeJaGijjW8xs+8V2vwFM/tCofyaiv68mX2BMGEu7CiKLHNXkPc2s98ysw+RZ1ZXgQt05HHuVu3R6hqFw+KR8OPNjCNCyrkIfGRzdHq+mfFYWCIcsThqyXjOXUF+yMy+sQSBwDJDfLm5d9xGGOP3mNkDhfJrLPrdZvZtwsS5rKMkksxZQT7KzF5gZpFvHIfAwWL0S2Z2fwnB/sK099D+YqclON7hBYDLScp+BHAx+b3m3erGAkgPMLPvF8rbnBXk54LeOv7JzPjR8ej2GjN7ffu3idNftm4nCnYlZXnlZxHfpaRwWwbXk8cL5ddc9EtFTwOOWnx8/rwUtLkqyGeY2a+XTmJPOc6bXMxcl7PKvrvqTzCzuwlt/aqZ8daTUo7A05q7xe3Li5+8o929tPxcFeTRZvYVpZPYUe77zOxbK+pHVFXNkfTJh+E3IzpfURuYzTGfK4K/HS5FvTJHBeE4goftu/eOfneBBzf/N96eU8o126MV1pZSwbavmC5L211DOQwripMppwuOWv/ZB84cFUQ9V27OcSxHwz5cUdAH9RXa+nesXLjcp+gI4BGNZ7QiRR/SOSoI7sp3UGbalh3icc8xjJPArBcWeOputs1dhQ9Dih8BDBvFd4vmCP8PZobrz0FvibkpCBF1WJo8UvRF8DQs1vHsHh87gbeAOK3ZFydI7g/EUfb+ZuamIAQ+/Yw4ya449vBi852zj75qnt0jHRL7UC3/959uwpUJMiuV3l1kbgritV7h0LcZsloKUHQ5z+6BIyYv7bXyTm1EJb5rxEwQkAUuc41tx4CBKz+nBj5sXJxrnUM/2eHceXAXmZuCANSNHL8UHAGV12pHF71VPLvHM5pjwYW9LfcX2BWjTa1XmdmTmv8xtVVvewb7PoTdu5XsM7XRwdMbD4xP64fstMTBXWROCvJ+zSXrb4SJbRblq/nHzrpR1Ty7B4+I3iNlN27Mw7y5HBKsY4ovWBQmu9rhnsB94ZDUxOJ8SRtUp8xh7y4yJwXxmnehfEG5phYUFKtIqWB1g2TiLaUVdpT71CZ4iF2oRHovpCWNVJYp/Yg8U9wFNof1Nm2gm+KjhdUR379zZE4K4r1/VAXEVC54Vx139ueKbfHSz4t/jeDMiQWsVKZkScHHTIkRrwlYU2NvwO/WZva8bSDnpCBosfLy3M3lji2vVemPZIhy3H9UL2Bi3ol998q7OcjS/q49atX06xkvl3Ee8ojvKRV2Y+9dhP5wQFUEL1+8fc+SuSjItczMy3RY86VRADxU9k/FCET8rfC7qhGOBH/kaIBL+5CMMLuGBKHbF4ljrVEQulLDm/+sCXe46VwVxPPIw1xgQsR6NKUQhMOZWREohaAWqhHogP7d2cC9G1+3H3fWVat9tZn9mFqp9USoMfve18weLvbLnY4I1lOZyw6C5y53EFVCWfTUztvyhObCuKJI7fGq6+ulTjbJN7RHLb6aQwpx/Rytrit2wtFKMXjsat5zzPrRJlANWqbZKYj3gk5YKuGpUwpvDQqHVsTxqpsvF33v/H+lsfZ83sDAwXnsoQF1kyxszUc9Zr1i+x1uLjuI94LOg5B6vIn8TfB6f9aWXNB4xPGq64ZjFu8KXgaWb+jhuS2Yzt4iEF/AIKlKjYl3uy/PMYu7Hb/HE5mDgsDIjnXFI+/aUIT+i6diUB0Y2C8S24r2GfM8jHVD5g6Difol4hz6in9EazLF/UUR7hx89DB6RAghz7w3KcJ6QhYyGwXxRIQxeB7YxiJ02Aewegd45UAURj/YXNi/SfkVbJSNPPJ1zapHm64ezqpwEUQKx6YPFhr8tc0Q3jnsIN+sMk20k4UMga/fVAJXF5GPigzpucuLOlYYj0Q8Wnb9eh7pqLvzHcIzma06qofvvzVHw3ee0w7ys20aAxULjjfq45zax6HyfLH5cityTzNjwYYQ3FawGF3H0fj/NHe5jwvwZ+P8DnduKUFeN1R2HPK7DCFwG/+U2PDpq/ocdhD1mNLNlahDGC2mkr7kN7vGFX3/2O6j5j7CfHAXrxGVII++uENyEhgqlsdzDzn1W4tUEM55vAfwFYFwgb+3q0F7gLpwZJHejEsp1iTiJrzCwip8V7w94B4ytNTcRx7iiKXv5sOP6jsck4N/GNKFIYV1V95iTsMQohQEL01+cMoPZkhAStvmB8sPVxVPaPCYnFc19xE4gTkmKcLxDK5cVcaiWFW5s/61y0EToSCf1TgZsvjHKI9x8m9B7vZUccJjuptzHyFVmcfKh4cwP3hFlJwdXbsQA/LbGUNK3ew3x3JyHK5VEOzcUHoecxYktt5/Flfp282M44gisP9hQhxLau4jpGkoJYZmF1BJ+v7DzHgrwQthDPF8xE8MKrUK4t1axwCltA++turD1KVNHdzsFZnC67jmPgLX1O/2TPATnVxen98ShSv41ZTFoZXQWkWwNt6zVkG+akSvUGVyStmzXAsKKxJPcYPCshRjcfAYmEJKQlx3jaskw25JxtnttmsMATX4lWQV3mz/hGetVkHI3XH6LF8z+onq/lebL5D/lgpJW3opK7caG/OCvj0PdkhM6R5hB+Ihd5d43GwiTMmeeVBHvahT55q1CkIQDMEwxyqeC+kHmBm5RBQZ84K+a1w195FdeRK9OSPZdV+tABdY1nNRv0GtgvAIgzcr5+tjFI83sCf+fMpY8G5dHmlm93EsEu40rPOmeOiZcHsnfmcqYe5goMitaxWEzjwvlcoghyhLIhWCY/iyq+LZNaPI4dSxbpdXHfe6+gSF4b6OPGw7qKhgUHNIRwFzPsk/FblLhILQIa/ojxPyVyuDjCzL1xCOKJQDz1qPeHywoiIIPePdrFNzH+nSV6v5S8hQrDCv1M5xX30P6+JFUQrSDeo92hjx83pm+TmOMFWahCTNE0tN3AM2d15Ia8XzBcXl5r9rOw6q7+Uf61hClOhJhgxnGdxlU4vn43BxtIKUgqCygHTt4uvzXaWdDFSOHCTY8UtlShPvvjF6PahL59yVw+NgLl4WnreQS6dSkLeqSLfliaEmlnpKgSBOiUPhHeKWUw54T98wwnizeJVMZ/PeUlJ+6DJv27z4K+Z8xvO8KRSERWFxVOGIgkFgbNKz7XGqFKNz4sXdnIvnyFG6ZpwQaH9uwvsV71il8sIpFATSMk9Y5V7+1NLZBpWDKkfhfZ2rggAHFDfcqaIFBkVerucmaojCy6dQEKK7iPJShRRb8LtOLTwS8lhYKnNWEOaAA2VkNN8Y8R2l2G+XgxxEcfl59RQKQooDDxs7bi0eGhkvmPvqcelW2BznriDME+9aMvPWyhyIxA/NQeUwe90UCuK9oHtevWsXfFd9HhnPFxo+BgUhJfI5zObCHCnK3VA1AYtdVBcnkpTcI6VyxdgK8kHOBzpCY6mruiyXAqGUUy96x6AgzN/jq7SJ21zeOw6tpZou4qqxFcTLwYtpldiDOcj/NsFSJGkpFb7MsGTMWcjQxYt3jRCGfFlNAyPUVU30bxlbQfCFwSdGlUc1seNfo1YaqDyv8lB+lkoEEXNpX95yxOXDUlkjnO8Vgraavrx1VYrbK8dWEJVdogMCCv2f8KISXE+dA56vilk4eLi9zZEjEUbDCCHNgcdjOKLvkjYIgtr2TD5U7w1jK4j3gs7LNUyKcxD8iq4vDOQ1Zvb+Qvkxi3rfpA6NcQ7eDvvGp1pQLxtTQbxJcrAa8e5wxZi/nAN9qS7jlw/s0uGFxeObVNrX9ZqdhJ12bvL6JpkPYyuVV46pIFDt/3DpyDbKEZDl5Zx1dNdbhVhtGDlKhTvLtUsLj1jOQ9VTOry5uLhvjxfeXYVx/iVjKgg8SJ68fIfioksXLLKc+sOaAwv99vw9tEUqhmORwinjUi2QLxhTQbyvtXd3JIZXQFPLPt2Rw5uHxTepHQ1UfkyqprlEUgIlRyuOWIo8YywFgZLUm+jm5i05nTKxIct6fMmmJCvYxAJPVriJVY5gTLg81KoCazxBdCoxn9pPSXlSjJ9mjiqpEEEcV9jPSdYgvryqoPHvM6NoPMbveXHGQOFJ2azi1Vf+CQ2ryN36Cu34d3YCHhOJLVeFde/CddW6keUhjSBnoiIPHmsHIRLQQ5AwJn9rKXCefBN4y5IDY0rhrYM3D1UeamYkxUG890ji+D0GGnWsh8pDrg4XgSLVzIqlnUFh6XG3mJpPatf8PLshX23Pj7MU375yN3Lm39j2AsCdBIc/xVmzG9ttnDSlfXMr/XcIDvEIV+TCsXYQ7wPh2ByuJeB5aI6GzCZbMmYeWUlroMouWta7NmTlxLSrwrsIaeu8d1G1v+3y5CC5s9jIjcdQEF6RvWx6AOql5xGxKC5O/jrVIsXxwptks3hgewp6TbqH8hbi9kMuc1We1LDL8Ho/hfA2wz1KkfPGUBAizABGFawtikuH2n5NedIVY50plalc3nl34t6gSh+HLt7MHLVuqjbcJlp6hKNebRUon5QHW3gTLhhDQYgC7Fj5lEnCXoJfzxxFfQs5K3PqSBOCHIMfsaLIDO2qNqiob+fmTtmXHmHfVEtSK0TCRIw8H1xFTtKwjaEgXPR4y1AlMjWx2ndfeVIW72M931cXV/CxEsYwBpguIYlT5b4Chy1rxIu5KuCA6Xss/7rbNVmznikO8iSL8hgK4r2gczxQaS5FDNzFPV6w1PEcNT2DJHbGc4zx7Npe0gceXO/lmZyjjsfEizHikqEVhJ2DHcQj3D/UbdHTj6eOx5I11kUdHlxCS1XhUZbXZpWuByMM5HiKl2w3NmW3UuezWZ44FWKKFAnJUdjXoTcDFdQ6c897CEsfbH2lMsZFnfE8W2R+7MbPcYyXdo/U5B/hLlNLGNE3ZjWnPSSFJynMh95BHuvksiI0lzQDcxaVYRFPUkDHu3coYZfizUUV7ivkMKkRSMX5IKqC+ZVwhghi8V19496OkUSRU5LCoRUES4jHyW0Orgl9gHqsc0N+LT33IubIGvE+UPsDvUZ71OKYpsqQfFp3cCTuOXWvGVJBPJrbATu2GVBdUMp7Ugvj0wT40YKF7DnOTF+RIbKsG8cZjxDLzl0hWjz3D3jCns9AhlQQT8KSDhwYNqZySShdoGu1X12+nKWCw2IkzWfXL9Yncq6oAi+v50h2qB+v6RfXeBTs5IcZKHhxKJwAZz1QD6kgfC1JSK/Krpx4ahtjlX9Wc8HEFbxUOAuTz5Ew3Ch5oDNnCmd/0jJ4zfCHxo9bOe7lqmB94z4ShY+HMfIkP3o38CEVxPtVe6KZEUV4DOLxc4p0fb+w4q2IxzMUfAghQAyrHS/YquDnpZpk9/Xhid2Bt41MZicypIKoidu7MfGo43nkUhciojxsj/wQFHlMQ6EKw2SEqJa0rk9+OJ74HGXM3vgT+rh9yzqv9LerLO8zvNiXCgR6HMdOd7ChFMTj+9JNgphpz0NXKQjR5dR8ISwC8Rn8t0Y8WVvp78THqKZjoS4BSnzwVCFtG+nbasRDM0XMzlkRl0MpyB3N7FLn7Lj8QhB9LPKgZqB8kRVhB2EnqRGPiwd3IO5M7DxjCO8+7LCeFHS13Fqe49Wdtn+3QymIx5mPBcP79GZjrFxgHx63kwhrlprIhymTUUoNO62FimModx3F2kefvKe8qKJz9XgFAybm8rPyGA6lIOrTfofDmA5sFdifU5VLHV8fRSCfe6lSYausan0ioo7YnCnEk1v+FhV+fJ7j1cN3pSYfQkE4Ir3ZuQq4KjzaWXfKaijHqeWjcCC18fbKDoJtn6NVl+u8cIihxdSQV8zhBKZ5xHO8um3rx3ZWf0MoiDeKjYFxvOKYdYyiXtYp74nI67BR3hoiX8u9awO/MjEZmID7pOaSzgf6ZaKzK0e5nS4yQyiIx0cJwLDqqIRmfUCP+e+er1bND5cfGlxb1+mZ5Fw4uRhmKTdVze7BI59qANm7mw+hIOTIvonjl8kXEevXsQopyNj9zhMmcElz7CEwxyuYQglnxkVjW7h0khVYfafxjqW0HhY8/nZ9sYkd4p5EvkOvqPdf0vpx39l5nItWkJrk9Cz0xV5UZlJPtfsT/01gDveJGuHLTHJKLEYk7IERH8UYK6TVM3bubXg3ExiH2wvjfoqnoY06MDiqBH0HH02jFeR+FT/yY75/dGvkiaC8v5kR/5xSjwB8XcqOfHD3YDiRCkLePmzPnuPVMTko9i0jvmRE2JUKF0TCZIliS/Ej4CGn7rUkRiqI180ZSOaWA8S/TP9vTlWdAKHExLiR4keA5wHFx61394jcQfCf4nJ0EsfrECLaxnJ/cAxPrvJU0ZeICzW7iJq/Qh7YQisMsntEKoiaHHFznSLcLua27h5StTlmZJobrvvGo+4eWFr5qPfGndQesa7bWGGevMfMWAoupsjHlxY+onJY5DBalAox4ewi3MdSyhHw7B7FDC41CsJ5796tebF8OmeX5GjBpf5KbwMzrkfiH8JH+W+pwAwCpinlCKi7x9OajGUQORTJPgXhLgG3K3+bWUHxXMXJDnOmh71ie1BzphctArCnkMfsvdMnKGIwC2zDYxDhrei5pVhsKgiJYQj8Z5tX0hyX9rVdDk9W4gRI7rlkUZMHzSVl2TGsCdS0SvAXD7m4/BdLpyAQMRPDMaYs9e6xjSHuIFi1FDlWr2ZljrVlyU9C/HqpYEhi95DobFEQD/ND6aD2lVvbV5KX8osE0PBFIiPU5UKdNRUl2pD7nUJPe0JGrYKEgsCLipKMJSw61C41wUJjjTWqH+50cOYqOJNTT1GqqLEeQzs8LCsZux7VeIvDeC8LCvLakTM53crMyJm3NsHjFiUhO1Op4PyJzT7lDALE0BDvUSovbi7lkBi6HDdREDV0s3Rgu8phXsPMtlZRyfQ2UzCvFbPteZOr/QECGFU8ZCgIL9ljJHqfgjBAwHG0okTLwetbInwpcWNPOYMAR3N21hKp9k5AQUhiQsD6UIKPFdT6hJimmPGWhFWr9IJZ85i7RLxLTzx4eKhpn8/BC/BJukKgCrHkkcLdBhcSlTMqcgxzbauUKojUBKTCTjmDwCtaep5DmGAFvGEEaN3X6YKW4zViO+dSiWKQlOWNEYNcaBuYcTneknd9n+Qd5FxkYKQ/9NiH+5LC5n7w57W5fZ/fOh1Cakw4ZAmBAj5UKAR/fO2glSEvN9mUUvoRwNnzIU32W5LfbMeyk53rHv1NrK4Ev1OC0uDv3ZQ3te8cob5sh863PMYQL9z9Xb1JsUVydf4IcOe/c8/hcSy/HjCGOACmEthdLtvF0XQskxlpnPhhgRsfGWL6SZsGbqGSF8BQOLOxpSGQCrK0Fc35hCKQChIKZza2NARSQZa2ojmfUARSQULhzMaWhkAqyNJWNOcTikAqSCic2djSEEgFWdqK5nxCEUgFCYUzG1saAqkgS1vRnE8oAqkgoXBmY0tDIBVkaSua8wlFIBUkFM5sbGkIpIIsbUVzPqEIpIKEwpmNLQ2BVJClrWjOJxSBVJBQOLOxpSGQCrK0Fc35hCKQChIKZza2NARSQZa2ojmfUARSQULhzMaWhkAqyNJWNOcTikAqSCic2djSEEgFWdqK5nxCEUgFCYUzG1saAqkgS1vRnE8oAqkgoXBmY0tDIBVkaSua8wlFIBUkFM5sbGkIpIIsbUVzPqEIpIKEwpmNLQ2BVJClrWjOJxSBVJBQOLOxpSGQCrK0Fc35hCKQChIKZza2NARSQZa2ojmfUARSQULhzMaWhkAqyNJWNOcTikAqSCic2djSEEgFWdqK5nxCEUgFCYUzG1saAqkgS1vRnE8oAqkgoXBmY0tD4P8AkM/4TiDyqr0AAAAASUVORK5CYII=;" vertex="1" parent="1">
          <mxGeometry x="205" y="130" width="30" height="30" as="geometry" />
        </mxCell>
        <mxCell id="SUEe3mXOdW9LNbR-s6AG-2" value="" style="shape=image;verticalLabelPosition=bottom;labelBackgroundColor=default;verticalAlign=top;aspect=fixed;imageAspect=0;image=data:image/png,iVBORw0KGgoAAAANSUhEUgAAAMgAAADICAYAAACtWK6eAAAAAXNSR0IArs4c6QAAGm5JREFUeF7tnQn8dls1x1cKhdwriWvIkJAKJUMooriGhBSKQmUoyXQVImXK2NWARBNu6KIyVSqUZEgTUSF1DemKbrhxDeV8/875v8/7vM/znP1be53hOWetz+f/uX169/jbzzp777XX+q2rWUoikAjsReBqiU0ikAjsRyAVJH8dicABBFJB8ueRCKSC5G8gEfAhkDuID7estRIEUkFWstA5TR8CqSA+3LLWShBIBVnJQuc0fQikgvhwy1orQSAVZCULndP0IZAK4sMta60EgVSQlSx0TtOHQCqID7estRIEUkFWstA5TR8CqSA+3LLWShBIBVnJQuc0fQikgvhwy1orQSAVZCULndP0IZAK4sMta60EgVSQlSx0TtOHQCqID7estRIEUkFWstA5TR8CqSA+3LLWShBIBVnJQuc0fQikgvhwy1orQSAVZCULndP0IZAK4sMta60EgVSQlSx0TtOHQCqID7estRIEUkFWstA5TR8CqSA+3LLWShBIBVnJQuc0fQikgvhwy1orQSAVZCULndP0IZAK4sMta60EgVSQlSx0TtOHQCqID7estRIEUkFWstA5TR8CqSA+3LLWShBIBVnJQuc0fQikgvhwy1orQSAVZCULndP0IZAK4sMta60EgVSQlSx0TtOHwFoU5NpmdoGZvaeZ/X3792YfZIPVup6Zva+ZXWFml5nZVYP1tIyG397Mrm9m55vZa83s8iGmtTQFeS8zu5mZfYyZfUKrECgGCrItb2wV5S/M7JfN7HfM7B+HALmnzS8zs7uY2W03yv2tmf2AmT1ygvEcQ5ff2azdvdr17cb7LDO7pPnIPC5yAktQkA81sy82s89sfugfVgnOk83szpVtKNV/u1HMTzpQ4cujF1wZ3EzLfp2ZPezA2J5iZp8bNfZjVpDbmdldW+W4ehQgZjaWknDU48h3SF5sZjcPnNsSmnpRe0o4NJefNLOvjJjsMSrIOzY/LADgWDKUPMLMvnaoxs3sR8zs6wva557EfFPOIHBlc/x8hwJA7tHcUR5bUO5gkWNTkM82syc2W+x5tRPvqf9XZnbDgfroOyJsdvvXZvaBA43jWJt9qzBwThncTdxyTApyv8ZicbF7pnrFDzezl+nVDta4hZk9Z4/RYFdFvoB8CVPOIPD7ZnbLQkD+xMxQEgwyLjkWBfmU2i+BAx3uB69z1DtU5TfM7NOFNrFsPVsov4aidzKzXxQmWnUfOQYF+ejmR/WHAiARRV9uZjeJaGijjW8xs+8V2vwFM/tCofyaiv68mX2BMGEu7CiKLHNXkPc2s98ysw+RZ1ZXgQt05HHuVu3R6hqFw+KR8OPNjCNCyrkIfGRzdHq+mfFYWCIcsThqyXjOXUF+yMy+sQSBwDJDfLm5d9xGGOP3mNkDhfJrLPrdZvZtwsS5rKMkksxZQT7KzF5gZpFvHIfAwWL0S2Z2fwnB/sK099D+YqclON7hBYDLScp+BHAx+b3m3erGAkgPMLPvF8rbnBXk54LeOv7JzPjR8ej2GjN7ffu3idNftm4nCnYlZXnlZxHfpaRwWwbXk8cL5ddc9EtFTwOOWnx8/rwUtLkqyGeY2a+XTmJPOc6bXMxcl7PKvrvqTzCzuwlt/aqZ8daTUo7A05q7xe3Li5+8o929tPxcFeTRZvYVpZPYUe77zOxbK+pHVFXNkfTJh+E3IzpfURuYzTGfK4K/HS5FvTJHBeE4goftu/eOfneBBzf/N96eU8o126MV1pZSwbavmC5L211DOQwripMppwuOWv/ZB84cFUQ9V27OcSxHwz5cUdAH9RXa+nesXLjcp+gI4BGNZ7QiRR/SOSoI7sp3UGbalh3icc8xjJPArBcWeOputs1dhQ9Dih8BDBvFd4vmCP8PZobrz0FvibkpCBF1WJo8UvRF8DQs1vHsHh87gbeAOK3ZFydI7g/EUfb+ZuamIAQ+/Yw4ya449vBi852zj75qnt0jHRL7UC3/959uwpUJMiuV3l1kbgritV7h0LcZsloKUHQ5z+6BIyYv7bXyTm1EJb5rxEwQkAUuc41tx4CBKz+nBj5sXJxrnUM/2eHceXAXmZuCANSNHL8UHAGV12pHF71VPLvHM5pjwYW9LfcX2BWjTa1XmdmTmv8xtVVvewb7PoTdu5XsM7XRwdMbD4xP64fstMTBXWROCvJ+zSXrb4SJbRblq/nHzrpR1Ty7B4+I3iNlN27Mw7y5HBKsY4ovWBQmu9rhnsB94ZDUxOJ8SRtUp8xh7y4yJwXxmnehfEG5phYUFKtIqWB1g2TiLaUVdpT71CZ4iF2oRHovpCWNVJYp/Yg8U9wFNof1Nm2gm+KjhdUR379zZE4K4r1/VAXEVC54Vx139ueKbfHSz4t/jeDMiQWsVKZkScHHTIkRrwlYU2NvwO/WZva8bSDnpCBosfLy3M3lji2vVemPZIhy3H9UL2Bi3ol998q7OcjS/q49atX06xkvl3Ee8ojvKRV2Y+9dhP5wQFUEL1+8fc+SuSjItczMy3RY86VRADxU9k/FCET8rfC7qhGOBH/kaIBL+5CMMLuGBKHbF4ljrVEQulLDm/+sCXe46VwVxPPIw1xgQsR6NKUQhMOZWREohaAWqhHogP7d2cC9G1+3H3fWVat9tZn9mFqp9USoMfve18weLvbLnY4I1lOZyw6C5y53EFVCWfTUztvyhObCuKJI7fGq6+ulTjbJN7RHLb6aQwpx/Rytrit2wtFKMXjsat5zzPrRJlANWqbZKYj3gk5YKuGpUwpvDQqHVsTxqpsvF33v/H+lsfZ83sDAwXnsoQF1kyxszUc9Zr1i+x1uLjuI94LOg5B6vIn8TfB6f9aWXNB4xPGq64ZjFu8KXgaWb+jhuS2Yzt4iEF/AIKlKjYl3uy/PMYu7Hb/HE5mDgsDIjnXFI+/aUIT+i6diUB0Y2C8S24r2GfM8jHVD5g6Difol4hz6in9EazLF/UUR7hx89DB6RAghz7w3KcJ6QhYyGwXxRIQxeB7YxiJ02Aewegd45UAURj/YXNi/SfkVbJSNPPJ1zapHm64ezqpwEUQKx6YPFhr8tc0Q3jnsIN+sMk20k4UMga/fVAJXF5GPigzpucuLOlYYj0Q8Wnb9eh7pqLvzHcIzma06qofvvzVHw3ee0w7ys20aAxULjjfq45zax6HyfLH5cityTzNjwYYQ3FawGF3H0fj/NHe5jwvwZ+P8DnduKUFeN1R2HPK7DCFwG/+U2PDpq/ocdhD1mNLNlahDGC2mkr7kN7vGFX3/2O6j5j7CfHAXrxGVII++uENyEhgqlsdzDzn1W4tUEM55vAfwFYFwgb+3q0F7gLpwZJHejEsp1iTiJrzCwip8V7w94B4ytNTcRx7iiKXv5sOP6jsck4N/GNKFIYV1V95iTsMQohQEL01+cMoPZkhAStvmB8sPVxVPaPCYnFc19xE4gTkmKcLxDK5cVcaiWFW5s/61y0EToSCf1TgZsvjHKI9x8m9B7vZUccJjuptzHyFVmcfKh4cwP3hFlJwdXbsQA/LbGUNK3ew3x3JyHK5VEOzcUHoecxYktt5/Flfp282M44gisP9hQhxLau4jpGkoJYZmF1BJ+v7DzHgrwQthDPF8xE8MKrUK4t1axwCltA++turD1KVNHdzsFZnC67jmPgLX1O/2TPATnVxen98ShSv41ZTFoZXQWkWwNt6zVkG+akSvUGVyStmzXAsKKxJPcYPCshRjcfAYmEJKQlx3jaskw25JxtnttmsMATX4lWQV3mz/hGetVkHI3XH6LF8z+onq/lebL5D/lgpJW3opK7caG/OCvj0PdkhM6R5hB+Ihd5d43GwiTMmeeVBHvahT55q1CkIQDMEwxyqeC+kHmBm5RBQZ84K+a1w195FdeRK9OSPZdV+tABdY1nNRv0GtgvAIgzcr5+tjFI83sCf+fMpY8G5dHmlm93EsEu40rPOmeOiZcHsnfmcqYe5goMitaxWEzjwvlcoghyhLIhWCY/iyq+LZNaPI4dSxbpdXHfe6+gSF4b6OPGw7qKhgUHNIRwFzPsk/FblLhILQIa/ojxPyVyuDjCzL1xCOKJQDz1qPeHywoiIIPePdrFNzH+nSV6v5S8hQrDCv1M5xX30P6+JFUQrSDeo92hjx83pm+TmOMFWahCTNE0tN3AM2d15Ia8XzBcXl5r9rOw6q7+Uf61hClOhJhgxnGdxlU4vn43BxtIKUgqCygHTt4uvzXaWdDFSOHCTY8UtlShPvvjF6PahL59yVw+NgLl4WnreQS6dSkLeqSLfliaEmlnpKgSBOiUPhHeKWUw54T98wwnizeJVMZ/PeUlJ+6DJv27z4K+Z8xvO8KRSERWFxVOGIgkFgbNKz7XGqFKNz4sXdnIvnyFG6ZpwQaH9uwvsV71il8sIpFATSMk9Y5V7+1NLZBpWDKkfhfZ2rggAHFDfcqaIFBkVerucmaojCy6dQEKK7iPJShRRb8LtOLTwS8lhYKnNWEOaAA2VkNN8Y8R2l2G+XgxxEcfl59RQKQooDDxs7bi0eGhkvmPvqcelW2BznriDME+9aMvPWyhyIxA/NQeUwe90UCuK9oHtevWsXfFd9HhnPFxo+BgUhJfI5zObCHCnK3VA1AYtdVBcnkpTcI6VyxdgK8kHOBzpCY6mruiyXAqGUUy96x6AgzN/jq7SJ21zeOw6tpZou4qqxFcTLwYtpldiDOcj/NsFSJGkpFb7MsGTMWcjQxYt3jRCGfFlNAyPUVU30bxlbQfCFwSdGlUc1seNfo1YaqDyv8lB+lkoEEXNpX95yxOXDUlkjnO8Vgraavrx1VYrbK8dWEJVdogMCCv2f8KISXE+dA56vilk4eLi9zZEjEUbDCCHNgcdjOKLvkjYIgtr2TD5U7w1jK4j3gs7LNUyKcxD8iq4vDOQ1Zvb+Qvkxi3rfpA6NcQ7eDvvGp1pQLxtTQbxJcrAa8e5wxZi/nAN9qS7jlw/s0uGFxeObVNrX9ZqdhJ12bvL6JpkPYyuVV46pIFDt/3DpyDbKEZDl5Zx1dNdbhVhtGDlKhTvLtUsLj1jOQ9VTOry5uLhvjxfeXYVx/iVjKgg8SJ68fIfioksXLLKc+sOaAwv99vw9tEUqhmORwinjUi2QLxhTQbyvtXd3JIZXQFPLPt2Rw5uHxTepHQ1UfkyqprlEUgIlRyuOWIo8YywFgZLUm+jm5i05nTKxIct6fMmmJCvYxAJPVriJVY5gTLg81KoCazxBdCoxn9pPSXlSjJ9mjiqpEEEcV9jPSdYgvryqoPHvM6NoPMbveXHGQOFJ2azi1Vf+CQ2ryN36Cu34d3YCHhOJLVeFde/CddW6keUhjSBnoiIPHmsHIRLQQ5AwJn9rKXCefBN4y5IDY0rhrYM3D1UeamYkxUG890ji+D0GGnWsh8pDrg4XgSLVzIqlnUFh6XG3mJpPatf8PLshX23Pj7MU375yN3Lm39j2AsCdBIc/xVmzG9ttnDSlfXMr/XcIDvEIV+TCsXYQ7wPh2ByuJeB5aI6GzCZbMmYeWUlroMouWta7NmTlxLSrwrsIaeu8d1G1v+3y5CC5s9jIjcdQEF6RvWx6AOql5xGxKC5O/jrVIsXxwptks3hgewp6TbqH8hbi9kMuc1We1LDL8Ho/hfA2wz1KkfPGUBAizABGFawtikuH2n5NedIVY50plalc3nl34t6gSh+HLt7MHLVuqjbcJlp6hKNebRUon5QHW3gTLhhDQYgC7Fj5lEnCXoJfzxxFfQs5K3PqSBOCHIMfsaLIDO2qNqiob+fmTtmXHmHfVEtSK0TCRIw8H1xFTtKwjaEgXPR4y1AlMjWx2ndfeVIW72M931cXV/CxEsYwBpguIYlT5b4Chy1rxIu5KuCA6Xss/7rbNVmznikO8iSL8hgK4r2gczxQaS5FDNzFPV6w1PEcNT2DJHbGc4zx7Npe0gceXO/lmZyjjsfEizHikqEVhJ2DHcQj3D/UbdHTj6eOx5I11kUdHlxCS1XhUZbXZpWuByMM5HiKl2w3NmW3UuezWZ44FWKKFAnJUdjXoTcDFdQ6c897CEsfbH2lMsZFnfE8W2R+7MbPcYyXdo/U5B/hLlNLGNE3ZjWnPSSFJynMh95BHuvksiI0lzQDcxaVYRFPUkDHu3coYZfizUUV7ivkMKkRSMX5IKqC+ZVwhghi8V19496OkUSRU5LCoRUES4jHyW0Orgl9gHqsc0N+LT33IubIGvE+UPsDvUZ71OKYpsqQfFp3cCTuOXWvGVJBPJrbATu2GVBdUMp7Ugvj0wT40YKF7DnOTF+RIbKsG8cZjxDLzl0hWjz3D3jCns9AhlQQT8KSDhwYNqZySShdoGu1X12+nKWCw2IkzWfXL9Yncq6oAi+v50h2qB+v6RfXeBTs5IcZKHhxKJwAZz1QD6kgfC1JSK/Krpx4ahtjlX9Wc8HEFbxUOAuTz5Ew3Ch5oDNnCmd/0jJ4zfCHxo9bOe7lqmB94z4ShY+HMfIkP3o38CEVxPtVe6KZEUV4DOLxc4p0fb+w4q2IxzMUfAghQAyrHS/YquDnpZpk9/Xhid2Bt41MZicypIKoidu7MfGo43nkUhciojxsj/wQFHlMQ6EKw2SEqJa0rk9+OJ74HGXM3vgT+rh9yzqv9LerLO8zvNiXCgR6HMdOd7ChFMTj+9JNgphpz0NXKQjR5dR8ISwC8Rn8t0Y8WVvp78THqKZjoS4BSnzwVCFtG+nbasRDM0XMzlkRl0MpyB3N7FLn7Lj8QhB9LPKgZqB8kRVhB2EnqRGPiwd3IO5M7DxjCO8+7LCeFHS13Fqe49Wdtn+3QymIx5mPBcP79GZjrFxgHx63kwhrlprIhymTUUoNO62FimModx3F2kefvKe8qKJz9XgFAybm8rPyGA6lIOrTfofDmA5sFdifU5VLHV8fRSCfe6lSYausan0ioo7YnCnEk1v+FhV+fJ7j1cN3pSYfQkE4Ir3ZuQq4KjzaWXfKaijHqeWjcCC18fbKDoJtn6NVl+u8cIihxdSQV8zhBKZ5xHO8um3rx3ZWf0MoiDeKjYFxvOKYdYyiXtYp74nI67BR3hoiX8u9awO/MjEZmID7pOaSzgf6ZaKzK0e5nS4yQyiIx0cJwLDqqIRmfUCP+e+er1bND5cfGlxb1+mZ5Fw4uRhmKTdVze7BI59qANm7mw+hIOTIvonjl8kXEevXsQopyNj9zhMmcElz7CEwxyuYQglnxkVjW7h0khVYfafxjqW0HhY8/nZ9sYkd4p5EvkOvqPdf0vpx39l5nItWkJrk9Cz0xV5UZlJPtfsT/01gDveJGuHLTHJKLEYk7IERH8UYK6TVM3bubXg3ExiH2wvjfoqnoY06MDiqBH0HH02jFeR+FT/yY75/dGvkiaC8v5kR/5xSjwB8XcqOfHD3YDiRCkLePmzPnuPVMTko9i0jvmRE2JUKF0TCZIliS/Ej4CGn7rUkRiqI180ZSOaWA8S/TP9vTlWdAKHExLiR4keA5wHFx61394jcQfCf4nJ0EsfrECLaxnJ/cAxPrvJU0ZeICzW7iJq/Qh7YQisMsntEKoiaHHFznSLcLua27h5StTlmZJobrvvGo+4eWFr5qPfGndQesa7bWGGevMfMWAoupsjHlxY+onJY5DBalAox4ewi3MdSyhHw7B7FDC41CsJ5796tebF8OmeX5GjBpf5KbwMzrkfiH8JH+W+pwAwCpinlCKi7x9OajGUQORTJPgXhLgG3K3+bWUHxXMXJDnOmh71ie1BzphctArCnkMfsvdMnKGIwC2zDYxDhrei5pVhsKgiJYQj8Z5tX0hyX9rVdDk9W4gRI7rlkUZMHzSVl2TGsCdS0SvAXD7m4/BdLpyAQMRPDMaYs9e6xjSHuIFi1FDlWr2ZljrVlyU9C/HqpYEhi95DobFEQD/ND6aD2lVvbV5KX8osE0PBFIiPU5UKdNRUl2pD7nUJPe0JGrYKEgsCLipKMJSw61C41wUJjjTWqH+50cOYqOJNTT1GqqLEeQzs8LCsZux7VeIvDeC8LCvLakTM53crMyJm3NsHjFiUhO1Op4PyJzT7lDALE0BDvUSovbi7lkBi6HDdREDV0s3Rgu8phXsPMtlZRyfQ2UzCvFbPteZOr/QECGFU8ZCgIL9ljJHqfgjBAwHG0okTLwetbInwpcWNPOYMAR3N21hKp9k5AQUhiQsD6UIKPFdT6hJimmPGWhFWr9IJZ85i7RLxLTzx4eKhpn8/BC/BJukKgCrHkkcLdBhcSlTMqcgxzbauUKojUBKTCTjmDwCtaep5DmGAFvGEEaN3X6YKW4zViO+dSiWKQlOWNEYNcaBuYcTneknd9n+Qd5FxkYKQ/9NiH+5LC5n7w57W5fZ/fOh1Cakw4ZAmBAj5UKAR/fO2glSEvN9mUUvoRwNnzIU32W5LfbMeyk53rHv1NrK4Ev1OC0uDv3ZQ3te8cob5sh863PMYQL9z9Xb1JsUVydf4IcOe/c8/hcSy/HjCGOACmEthdLtvF0XQskxlpnPhhgRsfGWL6SZsGbqGSF8BQOLOxpSGQCrK0Fc35hCKQChIKZza2NARSQZa2ojmfUARSQULhzMaWhkAqyNJWNOcTikAqSCic2djSEEgFWdqK5nxCEUgFCYUzG1saAqkgS1vRnE8oAqkgoXBmY0tDIBVkaSua8wlFIBUkFM5sbGkIpIIsbUVzPqEIpIKEwpmNLQ2BVJClrWjOJxSBVJBQOLOxpSGQCrK0Fc35hCKQChIKZza2NARSQZa2ojmfUARSQULhzMaWhkAqyNJWNOcTikAqSCic2djSEEgFWdqK5nxCEUgFCYUzG1saAqkgS1vRnE8oAqkgoXBmY0tDIBVkaSua8wlFIBUkFM5sbGkIpIIsbUVzPqEIpIKEwpmNLQ2BVJClrWjOJxSBVJBQOLOxpSGQCrK0Fc35hCKQChIKZza2NARSQZa2ojmfUARSQULhzMaWhkAqyNJWNOcTikAqSCic2djSEEgFWdqK5nxCEUgFCYUzG1saAqkgS1vRnE8oAqkgoXBmY0tD4P8AkM/4TiDyqr0AAAAASUVORK5CYII=;" vertex="1" parent="1">
          <mxGeometry x="274" y="130" width="30" height="30" as="geometry" />
        </mxCell>
        <mxCell id="SUEe3mXOdW9LNbR-s6AG-3" value="请求解析" style="text;html=1;strokeColor=none;fillColor=none;align=center;verticalAlign=middle;whiteSpace=wrap;rounded=0;" vertex="1" parent="1">
          <mxGeometry x="190" y="165" width="60" height="30" as="geometry" />
        </mxCell>
        <mxCell id="SUEe3mXOdW9LNbR-s6AG-4" value="环境配置" style="text;html=1;strokeColor=none;fillColor=none;align=center;verticalAlign=middle;whiteSpace=wrap;rounded=0;" vertex="1" parent="1">
          <mxGeometry x="258" y="165" width="60" height="30" as="geometry" />
        </mxCell>
        <mxCell id="SUEe3mXOdW9LNbR-s6AG-5" value="" style="shape=image;verticalLabelPosition=bottom;labelBackgroundColor=default;verticalAlign=top;aspect=fixed;imageAspect=0;image=data:image/png,iVBORw0KGgoAAAANSUhEUgAAAMgAAADICAYAAACtWK6eAAAAAXNSR0IArs4c6QAAGm5JREFUeF7tnQn8dls1x1cKhdwriWvIkJAKJUMooriGhBSKQmUoyXQVImXK2NWARBNu6KIyVSqUZEgTUSF1DemKbrhxDeV8/875v8/7vM/znP1be53hOWetz+f/uX169/jbzzp777XX+q2rWUoikAjsReBqiU0ikAjsRyAVJH8dicABBFJB8ueRCKSC5G8gEfAhkDuID7estRIEUkFWstA5TR8CqSA+3LLWShBIBVnJQuc0fQikgvhwy1orQSAVZCULndP0IZAK4sMta60EgVSQlSx0TtOHQCqID7estRIEUkFWstA5TR8CqSA+3LLWShBIBVnJQuc0fQikgvhwy1orQSAVZCULndP0IZAK4sMta60EgVSQlSx0TtOHQCqID7estRIEUkFWstA5TR8CqSA+3LLWShBIBVnJQuc0fQikgvhwy1orQSAVZCULndP0IZAK4sMta60EgVSQlSx0TtOHQCqID7estRIEUkFWstA5TR8CqSA+3LLWShBIBVnJQuc0fQikgvhwy1orQSAVZCULndP0IZAK4sMta60EgVSQlSx0TtOHQCqID7estRIEUkFWstA5TR8CqSA+3LLWShBIBVnJQuc0fQikgvhwy1orQSAVZCULndP0IZAK4sMta60EgVSQlSx0TtOHwFoU5NpmdoGZvaeZ/X3792YfZIPVup6Zva+ZXWFml5nZVYP1tIyG397Mrm9m55vZa83s8iGmtTQFeS8zu5mZfYyZfUKrECgGCrItb2wV5S/M7JfN7HfM7B+HALmnzS8zs7uY2W03yv2tmf2AmT1ygvEcQ5ff2azdvdr17cb7LDO7pPnIPC5yAktQkA81sy82s89sfugfVgnOk83szpVtKNV/u1HMTzpQ4cujF1wZ3EzLfp2ZPezA2J5iZp8bNfZjVpDbmdldW+W4ehQgZjaWknDU48h3SF5sZjcPnNsSmnpRe0o4NJefNLOvjJjsMSrIOzY/LADgWDKUPMLMvnaoxs3sR8zs6wva557EfFPOIHBlc/x8hwJA7tHcUR5bUO5gkWNTkM82syc2W+x5tRPvqf9XZnbDgfroOyJsdvvXZvaBA43jWJt9qzBwThncTdxyTApyv8ZicbF7pnrFDzezl+nVDta4hZk9Z4/RYFdFvoB8CVPOIPD7ZnbLQkD+xMxQEgwyLjkWBfmU2i+BAx3uB69z1DtU5TfM7NOFNrFsPVsov4aidzKzXxQmWnUfOQYF+ejmR/WHAiARRV9uZjeJaGijjW8xs+8V2vwFM/tCofyaiv68mX2BMGEu7CiKLHNXkPc2s98ysw+RZ1ZXgQt05HHuVu3R6hqFw+KR8OPNjCNCyrkIfGRzdHq+mfFYWCIcsThqyXjOXUF+yMy+sQSBwDJDfLm5d9xGGOP3mNkDhfJrLPrdZvZtwsS5rKMkksxZQT7KzF5gZpFvHIfAwWL0S2Z2fwnB/sK099D+YqclON7hBYDLScp+BHAx+b3m3erGAkgPMLPvF8rbnBXk54LeOv7JzPjR8ej2GjN7ffu3idNftm4nCnYlZXnlZxHfpaRwWwbXk8cL5ddc9EtFTwOOWnx8/rwUtLkqyGeY2a+XTmJPOc6bXMxcl7PKvrvqTzCzuwlt/aqZ8daTUo7A05q7xe3Li5+8o929tPxcFeTRZvYVpZPYUe77zOxbK+pHVFXNkfTJh+E3IzpfURuYzTGfK4K/HS5FvTJHBeE4goftu/eOfneBBzf/N96eU8o126MV1pZSwbavmC5L211DOQwripMppwuOWv/ZB84cFUQ9V27OcSxHwz5cUdAH9RXa+nesXLjcp+gI4BGNZ7QiRR/SOSoI7sp3UGbalh3icc8xjJPArBcWeOputs1dhQ9Dih8BDBvFd4vmCP8PZobrz0FvibkpCBF1WJo8UvRF8DQs1vHsHh87gbeAOK3ZFydI7g/EUfb+ZuamIAQ+/Yw4ya449vBi852zj75qnt0jHRL7UC3/959uwpUJMiuV3l1kbgritV7h0LcZsloKUHQ5z+6BIyYv7bXyTm1EJb5rxEwQkAUuc41tx4CBKz+nBj5sXJxrnUM/2eHceXAXmZuCANSNHL8UHAGV12pHF71VPLvHM5pjwYW9LfcX2BWjTa1XmdmTmv8xtVVvewb7PoTdu5XsM7XRwdMbD4xP64fstMTBXWROCvJ+zSXrb4SJbRblq/nHzrpR1Ty7B4+I3iNlN27Mw7y5HBKsY4ovWBQmu9rhnsB94ZDUxOJ8SRtUp8xh7y4yJwXxmnehfEG5phYUFKtIqWB1g2TiLaUVdpT71CZ4iF2oRHovpCWNVJYp/Yg8U9wFNof1Nm2gm+KjhdUR379zZE4K4r1/VAXEVC54Vx139ueKbfHSz4t/jeDMiQWsVKZkScHHTIkRrwlYU2NvwO/WZva8bSDnpCBosfLy3M3lji2vVemPZIhy3H9UL2Bi3ol998q7OcjS/q49atX06xkvl3Ee8ojvKRV2Y+9dhP5wQFUEL1+8fc+SuSjItczMy3RY86VRADxU9k/FCET8rfC7qhGOBH/kaIBL+5CMMLuGBKHbF4ljrVEQulLDm/+sCXe46VwVxPPIw1xgQsR6NKUQhMOZWREohaAWqhHogP7d2cC9G1+3H3fWVat9tZn9mFqp9USoMfve18weLvbLnY4I1lOZyw6C5y53EFVCWfTUztvyhObCuKJI7fGq6+ulTjbJN7RHLb6aQwpx/Rytrit2wtFKMXjsat5zzPrRJlANWqbZKYj3gk5YKuGpUwpvDQqHVsTxqpsvF33v/H+lsfZ83sDAwXnsoQF1kyxszUc9Zr1i+x1uLjuI94LOg5B6vIn8TfB6f9aWXNB4xPGq64ZjFu8KXgaWb+jhuS2Yzt4iEF/AIKlKjYl3uy/PMYu7Hb/HE5mDgsDIjnXFI+/aUIT+i6diUB0Y2C8S24r2GfM8jHVD5g6Difol4hz6in9EazLF/UUR7hx89DB6RAghz7w3KcJ6QhYyGwXxRIQxeB7YxiJ02Aewegd45UAURj/YXNi/SfkVbJSNPPJ1zapHm64ezqpwEUQKx6YPFhr8tc0Q3jnsIN+sMk20k4UMga/fVAJXF5GPigzpucuLOlYYj0Q8Wnb9eh7pqLvzHcIzma06qofvvzVHw3ee0w7ys20aAxULjjfq45zax6HyfLH5cityTzNjwYYQ3FawGF3H0fj/NHe5jwvwZ+P8DnduKUFeN1R2HPK7DCFwG/+U2PDpq/ocdhD1mNLNlahDGC2mkr7kN7vGFX3/2O6j5j7CfHAXrxGVII++uENyEhgqlsdzDzn1W4tUEM55vAfwFYFwgb+3q0F7gLpwZJHejEsp1iTiJrzCwip8V7w94B4ytNTcRx7iiKXv5sOP6jsck4N/GNKFIYV1V95iTsMQohQEL01+cMoPZkhAStvmB8sPVxVPaPCYnFc19xE4gTkmKcLxDK5cVcaiWFW5s/61y0EToSCf1TgZsvjHKI9x8m9B7vZUccJjuptzHyFVmcfKh4cwP3hFlJwdXbsQA/LbGUNK3ew3x3JyHK5VEOzcUHoecxYktt5/Flfp282M44gisP9hQhxLau4jpGkoJYZmF1BJ+v7DzHgrwQthDPF8xE8MKrUK4t1axwCltA++turD1KVNHdzsFZnC67jmPgLX1O/2TPATnVxen98ShSv41ZTFoZXQWkWwNt6zVkG+akSvUGVyStmzXAsKKxJPcYPCshRjcfAYmEJKQlx3jaskw25JxtnttmsMATX4lWQV3mz/hGetVkHI3XH6LF8z+onq/lebL5D/lgpJW3opK7caG/OCvj0PdkhM6R5hB+Ihd5d43GwiTMmeeVBHvahT55q1CkIQDMEwxyqeC+kHmBm5RBQZ84K+a1w195FdeRK9OSPZdV+tABdY1nNRv0GtgvAIgzcr5+tjFI83sCf+fMpY8G5dHmlm93EsEu40rPOmeOiZcHsnfmcqYe5goMitaxWEzjwvlcoghyhLIhWCY/iyq+LZNaPI4dSxbpdXHfe6+gSF4b6OPGw7qKhgUHNIRwFzPsk/FblLhILQIa/ojxPyVyuDjCzL1xCOKJQDz1qPeHywoiIIPePdrFNzH+nSV6v5S8hQrDCv1M5xX30P6+JFUQrSDeo92hjx83pm+TmOMFWahCTNE0tN3AM2d15Ia8XzBcXl5r9rOw6q7+Uf61hClOhJhgxnGdxlU4vn43BxtIKUgqCygHTt4uvzXaWdDFSOHCTY8UtlShPvvjF6PahL59yVw+NgLl4WnreQS6dSkLeqSLfliaEmlnpKgSBOiUPhHeKWUw54T98wwnizeJVMZ/PeUlJ+6DJv27z4K+Z8xvO8KRSERWFxVOGIgkFgbNKz7XGqFKNz4sXdnIvnyFG6ZpwQaH9uwvsV71il8sIpFATSMk9Y5V7+1NLZBpWDKkfhfZ2rggAHFDfcqaIFBkVerucmaojCy6dQEKK7iPJShRRb8LtOLTwS8lhYKnNWEOaAA2VkNN8Y8R2l2G+XgxxEcfl59RQKQooDDxs7bi0eGhkvmPvqcelW2BznriDME+9aMvPWyhyIxA/NQeUwe90UCuK9oHtevWsXfFd9HhnPFxo+BgUhJfI5zObCHCnK3VA1AYtdVBcnkpTcI6VyxdgK8kHOBzpCY6mruiyXAqGUUy96x6AgzN/jq7SJ21zeOw6tpZou4qqxFcTLwYtpldiDOcj/NsFSJGkpFb7MsGTMWcjQxYt3jRCGfFlNAyPUVU30bxlbQfCFwSdGlUc1seNfo1YaqDyv8lB+lkoEEXNpX95yxOXDUlkjnO8Vgraavrx1VYrbK8dWEJVdogMCCv2f8KISXE+dA56vilk4eLi9zZEjEUbDCCHNgcdjOKLvkjYIgtr2TD5U7w1jK4j3gs7LNUyKcxD8iq4vDOQ1Zvb+Qvkxi3rfpA6NcQ7eDvvGp1pQLxtTQbxJcrAa8e5wxZi/nAN9qS7jlw/s0uGFxeObVNrX9ZqdhJ12bvL6JpkPYyuVV46pIFDt/3DpyDbKEZDl5Zx1dNdbhVhtGDlKhTvLtUsLj1jOQ9VTOry5uLhvjxfeXYVx/iVjKgg8SJ68fIfioksXLLKc+sOaAwv99vw9tEUqhmORwinjUi2QLxhTQbyvtXd3JIZXQFPLPt2Rw5uHxTepHQ1UfkyqprlEUgIlRyuOWIo8YywFgZLUm+jm5i05nTKxIct6fMmmJCvYxAJPVriJVY5gTLg81KoCazxBdCoxn9pPSXlSjJ9mjiqpEEEcV9jPSdYgvryqoPHvM6NoPMbveXHGQOFJ2azi1Vf+CQ2ryN36Cu34d3YCHhOJLVeFde/CddW6keUhjSBnoiIPHmsHIRLQQ5AwJn9rKXCefBN4y5IDY0rhrYM3D1UeamYkxUG890ji+D0GGnWsh8pDrg4XgSLVzIqlnUFh6XG3mJpPatf8PLshX23Pj7MU375yN3Lm39j2AsCdBIc/xVmzG9ttnDSlfXMr/XcIDvEIV+TCsXYQ7wPh2ByuJeB5aI6GzCZbMmYeWUlroMouWta7NmTlxLSrwrsIaeu8d1G1v+3y5CC5s9jIjcdQEF6RvWx6AOql5xGxKC5O/jrVIsXxwptks3hgewp6TbqH8hbi9kMuc1We1LDL8Ho/hfA2wz1KkfPGUBAizABGFawtikuH2n5NedIVY50plalc3nl34t6gSh+HLt7MHLVuqjbcJlp6hKNebRUon5QHW3gTLhhDQYgC7Fj5lEnCXoJfzxxFfQs5K3PqSBOCHIMfsaLIDO2qNqiob+fmTtmXHmHfVEtSK0TCRIw8H1xFTtKwjaEgXPR4y1AlMjWx2ndfeVIW72M931cXV/CxEsYwBpguIYlT5b4Chy1rxIu5KuCA6Xss/7rbNVmznikO8iSL8hgK4r2gczxQaS5FDNzFPV6w1PEcNT2DJHbGc4zx7Npe0gceXO/lmZyjjsfEizHikqEVhJ2DHcQj3D/UbdHTj6eOx5I11kUdHlxCS1XhUZbXZpWuByMM5HiKl2w3NmW3UuezWZ44FWKKFAnJUdjXoTcDFdQ6c897CEsfbH2lMsZFnfE8W2R+7MbPcYyXdo/U5B/hLlNLGNE3ZjWnPSSFJynMh95BHuvksiI0lzQDcxaVYRFPUkDHu3coYZfizUUV7ivkMKkRSMX5IKqC+ZVwhghi8V19496OkUSRU5LCoRUES4jHyW0Orgl9gHqsc0N+LT33IubIGvE+UPsDvUZ71OKYpsqQfFp3cCTuOXWvGVJBPJrbATu2GVBdUMp7Ugvj0wT40YKF7DnOTF+RIbKsG8cZjxDLzl0hWjz3D3jCns9AhlQQT8KSDhwYNqZySShdoGu1X12+nKWCw2IkzWfXL9Yncq6oAi+v50h2qB+v6RfXeBTs5IcZKHhxKJwAZz1QD6kgfC1JSK/Krpx4ahtjlX9Wc8HEFbxUOAuTz5Ew3Ch5oDNnCmd/0jJ4zfCHxo9bOe7lqmB94z4ShY+HMfIkP3o38CEVxPtVe6KZEUV4DOLxc4p0fb+w4q2IxzMUfAghQAyrHS/YquDnpZpk9/Xhid2Bt41MZicypIKoidu7MfGo43nkUhciojxsj/wQFHlMQ6EKw2SEqJa0rk9+OJ74HGXM3vgT+rh9yzqv9LerLO8zvNiXCgR6HMdOd7ChFMTj+9JNgphpz0NXKQjR5dR8ISwC8Rn8t0Y8WVvp78THqKZjoS4BSnzwVCFtG+nbasRDM0XMzlkRl0MpyB3N7FLn7Lj8QhB9LPKgZqB8kRVhB2EnqRGPiwd3IO5M7DxjCO8+7LCeFHS13Fqe49Wdtn+3QymIx5mPBcP79GZjrFxgHx63kwhrlprIhymTUUoNO62FimModx3F2kefvKe8qKJz9XgFAybm8rPyGA6lIOrTfofDmA5sFdifU5VLHV8fRSCfe6lSYausan0ioo7YnCnEk1v+FhV+fJ7j1cN3pSYfQkE4Ir3ZuQq4KjzaWXfKaijHqeWjcCC18fbKDoJtn6NVl+u8cIihxdSQV8zhBKZ5xHO8um3rx3ZWf0MoiDeKjYFxvOKYdYyiXtYp74nI67BR3hoiX8u9awO/MjEZmID7pOaSzgf6ZaKzK0e5nS4yQyiIx0cJwLDqqIRmfUCP+e+er1bND5cfGlxb1+mZ5Fw4uRhmKTdVze7BI59qANm7mw+hIOTIvonjl8kXEevXsQopyNj9zhMmcElz7CEwxyuYQglnxkVjW7h0khVYfafxjqW0HhY8/nZ9sYkd4p5EvkOvqPdf0vpx39l5nItWkJrk9Cz0xV5UZlJPtfsT/01gDveJGuHLTHJKLEYk7IERH8UYK6TVM3bubXg3ExiH2wvjfoqnoY06MDiqBH0HH02jFeR+FT/yY75/dGvkiaC8v5kR/5xSjwB8XcqOfHD3YDiRCkLePmzPnuPVMTko9i0jvmRE2JUKF0TCZIliS/Ej4CGn7rUkRiqI180ZSOaWA8S/TP9vTlWdAKHExLiR4keA5wHFx61394jcQfCf4nJ0EsfrECLaxnJ/cAxPrvJU0ZeICzW7iJq/Qh7YQisMsntEKoiaHHFznSLcLua27h5StTlmZJobrvvGo+4eWFr5qPfGndQesa7bWGGevMfMWAoupsjHlxY+onJY5DBalAox4ewi3MdSyhHw7B7FDC41CsJ5796tebF8OmeX5GjBpf5KbwMzrkfiH8JH+W+pwAwCpinlCKi7x9OajGUQORTJPgXhLgG3K3+bWUHxXMXJDnOmh71ie1BzphctArCnkMfsvdMnKGIwC2zDYxDhrei5pVhsKgiJYQj8Z5tX0hyX9rVdDk9W4gRI7rlkUZMHzSVl2TGsCdS0SvAXD7m4/BdLpyAQMRPDMaYs9e6xjSHuIFi1FDlWr2ZljrVlyU9C/HqpYEhi95DobFEQD/ND6aD2lVvbV5KX8osE0PBFIiPU5UKdNRUl2pD7nUJPe0JGrYKEgsCLipKMJSw61C41wUJjjTWqH+50cOYqOJNTT1GqqLEeQzs8LCsZux7VeIvDeC8LCvLakTM53crMyJm3NsHjFiUhO1Op4PyJzT7lDALE0BDvUSovbi7lkBi6HDdREDV0s3Rgu8phXsPMtlZRyfQ2UzCvFbPteZOr/QECGFU8ZCgIL9ljJHqfgjBAwHG0okTLwetbInwpcWNPOYMAR3N21hKp9k5AQUhiQsD6UIKPFdT6hJimmPGWhFWr9IJZ85i7RLxLTzx4eKhpn8/BC/BJukKgCrHkkcLdBhcSlTMqcgxzbauUKojUBKTCTjmDwCtaep5DmGAFvGEEaN3X6YKW4zViO+dSiWKQlOWNEYNcaBuYcTneknd9n+Qd5FxkYKQ/9NiH+5LC5n7w57W5fZ/fOh1Cakw4ZAmBAj5UKAR/fO2glSEvN9mUUvoRwNnzIU32W5LfbMeyk53rHv1NrK4Ev1OC0uDv3ZQ3te8cob5sh863PMYQL9z9Xb1JsUVydf4IcOe/c8/hcSy/HjCGOACmEthdLtvF0XQskxlpnPhhgRsfGWL6SZsGbqGSF8BQOLOxpSGQCrK0Fc35hCKQChIKZza2NARSQZa2ojmfUARSQULhzMaWhkAqyNJWNOcTikAqSCic2djSEEgFWdqK5nxCEUgFCYUzG1saAqkgS1vRnE8oAqkgoXBmY0tDIBVkaSua8wlFIBUkFM5sbGkIpIIsbUVzPqEIpIKEwpmNLQ2BVJClrWjOJxSBVJBQOLOxpSGQCrK0Fc35hCKQChIKZza2NARSQZa2ojmfUARSQULhzMaWhkAqyNJWNOcTikAqSCic2djSEEgFWdqK5nxCEUgFCYUzG1saAqkgS1vRnE8oAqkgoXBmY0tDIBVkaSua8wlFIBUkFM5sbGkIpIIsbUVzPqEIpIKEwpmNLQ2BVJClrWjOJxSBVJBQOLOxpSGQCrK0Fc35hCKQChIKZza2NARSQZa2ojmfUARSQULhzMaWhkAqyNJWNOcTikAqSCic2djSEEgFWdqK5nxCEUgFCYUzG1saAqkgS1vRnE8oAqkgoXBmY0tD4P8AkM/4TiDyqr0AAAAASUVORK5CYII=;" vertex="1" parent="1">
          <mxGeometry x="345" y="130" width="30" height="30" as="geometry" />
        </mxCell>
        <mxCell id="SUEe3mXOdW9LNbR-s6AG-6" value="流量记录" style="text;html=1;strokeColor=none;fillColor=none;align=center;verticalAlign=middle;whiteSpace=wrap;rounded=0;" vertex="1" parent="1">
          <mxGeometry x="330" y="170" width="60" height="20" as="geometry" />
        </mxCell>
        <mxCell id="SUEe3mXOdW9LNbR-s6AG-7" value="" style="shape=image;verticalLabelPosition=bottom;labelBackgroundColor=default;verticalAlign=top;aspect=fixed;imageAspect=0;image=data:image/png,iVBORw0KGgoAAAANSUhEUgAAAMgAAADICAYAAACtWK6eAAAAAXNSR0IArs4c6QAAGm5JREFUeF7tnQn8dls1x1cKhdwriWvIkJAKJUMooriGhBSKQmUoyXQVImXK2NWARBNu6KIyVSqUZEgTUSF1DemKbrhxDeV8/875v8/7vM/znP1be53hOWetz+f/uX169/jbzzp777XX+q2rWUoikAjsReBqiU0ikAjsRyAVJH8dicABBFJB8ueRCKSC5G8gEfAhkDuID7estRIEUkFWstA5TR8CqSA+3LLWShBIBVnJQuc0fQikgvhwy1orQSAVZCULndP0IZAK4sMta60EgVSQlSx0TtOHQCqID7estRIEUkFWstA5TR8CqSA+3LLWShBIBVnJQuc0fQikgvhwy1orQSAVZCULndP0IZAK4sMta60EgVSQlSx0TtOHQCqID7estRIEUkFWstA5TR8CqSA+3LLWShBIBVnJQuc0fQikgvhwy1orQSAVZCULndP0IZAK4sMta60EgVSQlSx0TtOHQCqID7estRIEUkFWstA5TR8CqSA+3LLWShBIBVnJQuc0fQikgvhwy1orQSAVZCULndP0IZAK4sMta60EgVSQlSx0TtOHQCqID7estRIEUkFWstA5TR8CqSA+3LLWShBIBVnJQuc0fQikgvhwy1orQSAVZCULndP0IZAK4sMta60EgVSQlSx0TtOHwFoU5NpmdoGZvaeZ/X3792YfZIPVup6Zva+ZXWFml5nZVYP1tIyG397Mrm9m55vZa83s8iGmtTQFeS8zu5mZfYyZfUKrECgGCrItb2wV5S/M7JfN7HfM7B+HALmnzS8zs7uY2W03yv2tmf2AmT1ygvEcQ5ff2azdvdr17cb7LDO7pPnIPC5yAktQkA81sy82s89sfugfVgnOk83szpVtKNV/u1HMTzpQ4cujF1wZ3EzLfp2ZPezA2J5iZp8bNfZjVpDbmdldW+W4ehQgZjaWknDU48h3SF5sZjcPnNsSmnpRe0o4NJefNLOvjJjsMSrIOzY/LADgWDKUPMLMvnaoxs3sR8zs6wva557EfFPOIHBlc/x8hwJA7tHcUR5bUO5gkWNTkM82syc2W+x5tRPvqf9XZnbDgfroOyJsdvvXZvaBA43jWJt9qzBwThncTdxyTApyv8ZicbF7pnrFDzezl+nVDta4hZk9Z4/RYFdFvoB8CVPOIPD7ZnbLQkD+xMxQEgwyLjkWBfmU2i+BAx3uB69z1DtU5TfM7NOFNrFsPVsov4aidzKzXxQmWnUfOQYF+ejmR/WHAiARRV9uZjeJaGijjW8xs+8V2vwFM/tCofyaiv68mX2BMGEu7CiKLHNXkPc2s98ysw+RZ1ZXgQt05HHuVu3R6hqFw+KR8OPNjCNCyrkIfGRzdHq+mfFYWCIcsThqyXjOXUF+yMy+sQSBwDJDfLm5d9xGGOP3mNkDhfJrLPrdZvZtwsS5rKMkksxZQT7KzF5gZpFvHIfAwWL0S2Z2fwnB/sK099D+YqclON7hBYDLScp+BHAx+b3m3erGAkgPMLPvF8rbnBXk54LeOv7JzPjR8ej2GjN7ffu3idNftm4nCnYlZXnlZxHfpaRwWwbXk8cL5ddc9EtFTwOOWnx8/rwUtLkqyGeY2a+XTmJPOc6bXMxcl7PKvrvqTzCzuwlt/aqZ8daTUo7A05q7xe3Li5+8o929tPxcFeTRZvYVpZPYUe77zOxbK+pHVFXNkfTJh+E3IzpfURuYzTGfK4K/HS5FvTJHBeE4goftu/eOfneBBzf/N96eU8o126MV1pZSwbavmC5L211DOQwripMppwuOWv/ZB84cFUQ9V27OcSxHwz5cUdAH9RXa+nesXLjcp+gI4BGNZ7QiRR/SOSoI7sp3UGbalh3icc8xjJPArBcWeOputs1dhQ9Dih8BDBvFd4vmCP8PZobrz0FvibkpCBF1WJo8UvRF8DQs1vHsHh87gbeAOK3ZFydI7g/EUfb+ZuamIAQ+/Yw4ya449vBi852zj75qnt0jHRL7UC3/959uwpUJMiuV3l1kbgritV7h0LcZsloKUHQ5z+6BIyYv7bXyTm1EJb5rxEwQkAUuc41tx4CBKz+nBj5sXJxrnUM/2eHceXAXmZuCANSNHL8UHAGV12pHF71VPLvHM5pjwYW9LfcX2BWjTa1XmdmTmv8xtVVvewb7PoTdu5XsM7XRwdMbD4xP64fstMTBXWROCvJ+zSXrb4SJbRblq/nHzrpR1Ty7B4+I3iNlN27Mw7y5HBKsY4ovWBQmu9rhnsB94ZDUxOJ8SRtUp8xh7y4yJwXxmnehfEG5phYUFKtIqWB1g2TiLaUVdpT71CZ4iF2oRHovpCWNVJYp/Yg8U9wFNof1Nm2gm+KjhdUR379zZE4K4r1/VAXEVC54Vx139ueKbfHSz4t/jeDMiQWsVKZkScHHTIkRrwlYU2NvwO/WZva8bSDnpCBosfLy3M3lji2vVemPZIhy3H9UL2Bi3ol998q7OcjS/q49atX06xkvl3Ee8ojvKRV2Y+9dhP5wQFUEL1+8fc+SuSjItczMy3RY86VRADxU9k/FCET8rfC7qhGOBH/kaIBL+5CMMLuGBKHbF4ljrVEQulLDm/+sCXe46VwVxPPIw1xgQsR6NKUQhMOZWREohaAWqhHogP7d2cC9G1+3H3fWVat9tZn9mFqp9USoMfve18weLvbLnY4I1lOZyw6C5y53EFVCWfTUztvyhObCuKJI7fGq6+ulTjbJN7RHLb6aQwpx/Rytrit2wtFKMXjsat5zzPrRJlANWqbZKYj3gk5YKuGpUwpvDQqHVsTxqpsvF33v/H+lsfZ83sDAwXnsoQF1kyxszUc9Zr1i+x1uLjuI94LOg5B6vIn8TfB6f9aWXNB4xPGq64ZjFu8KXgaWb+jhuS2Yzt4iEF/AIKlKjYl3uy/PMYu7Hb/HE5mDgsDIjnXFI+/aUIT+i6diUB0Y2C8S24r2GfM8jHVD5g6Difol4hz6in9EazLF/UUR7hx89DB6RAghz7w3KcJ6QhYyGwXxRIQxeB7YxiJ02Aewegd45UAURj/YXNi/SfkVbJSNPPJ1zapHm64ezqpwEUQKx6YPFhr8tc0Q3jnsIN+sMk20k4UMga/fVAJXF5GPigzpucuLOlYYj0Q8Wnb9eh7pqLvzHcIzma06qofvvzVHw3ee0w7ys20aAxULjjfq45zax6HyfLH5cityTzNjwYYQ3FawGF3H0fj/NHe5jwvwZ+P8DnduKUFeN1R2HPK7DCFwG/+U2PDpq/ocdhD1mNLNlahDGC2mkr7kN7vGFX3/2O6j5j7CfHAXrxGVII++uENyEhgqlsdzDzn1W4tUEM55vAfwFYFwgb+3q0F7gLpwZJHejEsp1iTiJrzCwip8V7w94B4ytNTcRx7iiKXv5sOP6jsck4N/GNKFIYV1V95iTsMQohQEL01+cMoPZkhAStvmB8sPVxVPaPCYnFc19xE4gTkmKcLxDK5cVcaiWFW5s/61y0EToSCf1TgZsvjHKI9x8m9B7vZUccJjuptzHyFVmcfKh4cwP3hFlJwdXbsQA/LbGUNK3ew3x3JyHK5VEOzcUHoecxYktt5/Flfp282M44gisP9hQhxLau4jpGkoJYZmF1BJ+v7DzHgrwQthDPF8xE8MKrUK4t1axwCltA++turD1KVNHdzsFZnC67jmPgLX1O/2TPATnVxen98ShSv41ZTFoZXQWkWwNt6zVkG+akSvUGVyStmzXAsKKxJPcYPCshRjcfAYmEJKQlx3jaskw25JxtnttmsMATX4lWQV3mz/hGetVkHI3XH6LF8z+onq/lebL5D/lgpJW3opK7caG/OCvj0PdkhM6R5hB+Ihd5d43GwiTMmeeVBHvahT55q1CkIQDMEwxyqeC+kHmBm5RBQZ84K+a1w195FdeRK9OSPZdV+tABdY1nNRv0GtgvAIgzcr5+tjFI83sCf+fMpY8G5dHmlm93EsEu40rPOmeOiZcHsnfmcqYe5goMitaxWEzjwvlcoghyhLIhWCY/iyq+LZNaPI4dSxbpdXHfe6+gSF4b6OPGw7qKhgUHNIRwFzPsk/FblLhILQIa/ojxPyVyuDjCzL1xCOKJQDz1qPeHywoiIIPePdrFNzH+nSV6v5S8hQrDCv1M5xX30P6+JFUQrSDeo92hjx83pm+TmOMFWahCTNE0tN3AM2d15Ia8XzBcXl5r9rOw6q7+Uf61hClOhJhgxnGdxlU4vn43BxtIKUgqCygHTt4uvzXaWdDFSOHCTY8UtlShPvvjF6PahL59yVw+NgLl4WnreQS6dSkLeqSLfliaEmlnpKgSBOiUPhHeKWUw54T98wwnizeJVMZ/PeUlJ+6DJv27z4K+Z8xvO8KRSERWFxVOGIgkFgbNKz7XGqFKNz4sXdnIvnyFG6ZpwQaH9uwvsV71il8sIpFATSMk9Y5V7+1NLZBpWDKkfhfZ2rggAHFDfcqaIFBkVerucmaojCy6dQEKK7iPJShRRb8LtOLTwS8lhYKnNWEOaAA2VkNN8Y8R2l2G+XgxxEcfl59RQKQooDDxs7bi0eGhkvmPvqcelW2BznriDME+9aMvPWyhyIxA/NQeUwe90UCuK9oHtevWsXfFd9HhnPFxo+BgUhJfI5zObCHCnK3VA1AYtdVBcnkpTcI6VyxdgK8kHOBzpCY6mruiyXAqGUUy96x6AgzN/jq7SJ21zeOw6tpZou4qqxFcTLwYtpldiDOcj/NsFSJGkpFb7MsGTMWcjQxYt3jRCGfFlNAyPUVU30bxlbQfCFwSdGlUc1seNfo1YaqDyv8lB+lkoEEXNpX95yxOXDUlkjnO8Vgraavrx1VYrbK8dWEJVdogMCCv2f8KISXE+dA56vilk4eLi9zZEjEUbDCCHNgcdjOKLvkjYIgtr2TD5U7w1jK4j3gs7LNUyKcxD8iq4vDOQ1Zvb+Qvkxi3rfpA6NcQ7eDvvGp1pQLxtTQbxJcrAa8e5wxZi/nAN9qS7jlw/s0uGFxeObVNrX9ZqdhJ12bvL6JpkPYyuVV46pIFDt/3DpyDbKEZDl5Zx1dNdbhVhtGDlKhTvLtUsLj1jOQ9VTOry5uLhvjxfeXYVx/iVjKgg8SJ68fIfioksXLLKc+sOaAwv99vw9tEUqhmORwinjUi2QLxhTQbyvtXd3JIZXQFPLPt2Rw5uHxTepHQ1UfkyqprlEUgIlRyuOWIo8YywFgZLUm+jm5i05nTKxIct6fMmmJCvYxAJPVriJVY5gTLg81KoCazxBdCoxn9pPSXlSjJ9mjiqpEEEcV9jPSdYgvryqoPHvM6NoPMbveXHGQOFJ2azi1Vf+CQ2ryN36Cu34d3YCHhOJLVeFde/CddW6keUhjSBnoiIPHmsHIRLQQ5AwJn9rKXCefBN4y5IDY0rhrYM3D1UeamYkxUG890ji+D0GGnWsh8pDrg4XgSLVzIqlnUFh6XG3mJpPatf8PLshX23Pj7MU375yN3Lm39j2AsCdBIc/xVmzG9ttnDSlfXMr/XcIDvEIV+TCsXYQ7wPh2ByuJeB5aI6GzCZbMmYeWUlroMouWta7NmTlxLSrwrsIaeu8d1G1v+3y5CC5s9jIjcdQEF6RvWx6AOql5xGxKC5O/jrVIsXxwptks3hgewp6TbqH8hbi9kMuc1We1LDL8Ho/hfA2wz1KkfPGUBAizABGFawtikuH2n5NedIVY50plalc3nl34t6gSh+HLt7MHLVuqjbcJlp6hKNebRUon5QHW3gTLhhDQYgC7Fj5lEnCXoJfzxxFfQs5K3PqSBOCHIMfsaLIDO2qNqiob+fmTtmXHmHfVEtSK0TCRIw8H1xFTtKwjaEgXPR4y1AlMjWx2ndfeVIW72M931cXV/CxEsYwBpguIYlT5b4Chy1rxIu5KuCA6Xss/7rbNVmznikO8iSL8hgK4r2gczxQaS5FDNzFPV6w1PEcNT2DJHbGc4zx7Npe0gceXO/lmZyjjsfEizHikqEVhJ2DHcQj3D/UbdHTj6eOx5I11kUdHlxCS1XhUZbXZpWuByMM5HiKl2w3NmW3UuezWZ44FWKKFAnJUdjXoTcDFdQ6c897CEsfbH2lMsZFnfE8W2R+7MbPcYyXdo/U5B/hLlNLGNE3ZjWnPSSFJynMh95BHuvksiI0lzQDcxaVYRFPUkDHu3coYZfizUUV7ivkMKkRSMX5IKqC+ZVwhghi8V19496OkUSRU5LCoRUES4jHyW0Orgl9gHqsc0N+LT33IubIGvE+UPsDvUZ71OKYpsqQfFp3cCTuOXWvGVJBPJrbATu2GVBdUMp7Ugvj0wT40YKF7DnOTF+RIbKsG8cZjxDLzl0hWjz3D3jCns9AhlQQT8KSDhwYNqZySShdoGu1X12+nKWCw2IkzWfXL9Yncq6oAi+v50h2qB+v6RfXeBTs5IcZKHhxKJwAZz1QD6kgfC1JSK/Krpx4ahtjlX9Wc8HEFbxUOAuTz5Ew3Ch5oDNnCmd/0jJ4zfCHxo9bOe7lqmB94z4ShY+HMfIkP3o38CEVxPtVe6KZEUV4DOLxc4p0fb+w4q2IxzMUfAghQAyrHS/YquDnpZpk9/Xhid2Bt41MZicypIKoidu7MfGo43nkUhciojxsj/wQFHlMQ6EKw2SEqJa0rk9+OJ74HGXM3vgT+rh9yzqv9LerLO8zvNiXCgR6HMdOd7ChFMTj+9JNgphpz0NXKQjR5dR8ISwC8Rn8t0Y8WVvp78THqKZjoS4BSnzwVCFtG+nbasRDM0XMzlkRl0MpyB3N7FLn7Lj8QhB9LPKgZqB8kRVhB2EnqRGPiwd3IO5M7DxjCO8+7LCeFHS13Fqe49Wdtn+3QymIx5mPBcP79GZjrFxgHx63kwhrlprIhymTUUoNO62FimModx3F2kefvKe8qKJz9XgFAybm8rPyGA6lIOrTfofDmA5sFdifU5VLHV8fRSCfe6lSYausan0ioo7YnCnEk1v+FhV+fJ7j1cN3pSYfQkE4Ir3ZuQq4KjzaWXfKaijHqeWjcCC18fbKDoJtn6NVl+u8cIihxdSQV8zhBKZ5xHO8um3rx3ZWf0MoiDeKjYFxvOKYdYyiXtYp74nI67BR3hoiX8u9awO/MjEZmID7pOaSzgf6ZaKzK0e5nS4yQyiIx0cJwLDqqIRmfUCP+e+er1bND5cfGlxb1+mZ5Fw4uRhmKTdVze7BI59qANm7mw+hIOTIvonjl8kXEevXsQopyNj9zhMmcElz7CEwxyuYQglnxkVjW7h0khVYfafxjqW0HhY8/nZ9sYkd4p5EvkOvqPdf0vpx39l5nItWkJrk9Cz0xV5UZlJPtfsT/01gDveJGuHLTHJKLEYk7IERH8UYK6TVM3bubXg3ExiH2wvjfoqnoY06MDiqBH0HH02jFeR+FT/yY75/dGvkiaC8v5kR/5xSjwB8XcqOfHD3YDiRCkLePmzPnuPVMTko9i0jvmRE2JUKF0TCZIliS/Ej4CGn7rUkRiqI180ZSOaWA8S/TP9vTlWdAKHExLiR4keA5wHFx61394jcQfCf4nJ0EsfrECLaxnJ/cAxPrvJU0ZeICzW7iJq/Qh7YQisMsntEKoiaHHFznSLcLua27h5StTlmZJobrvvGo+4eWFr5qPfGndQesa7bWGGevMfMWAoupsjHlxY+onJY5DBalAox4ewi3MdSyhHw7B7FDC41CsJ5796tebF8OmeX5GjBpf5KbwMzrkfiH8JH+W+pwAwCpinlCKi7x9OajGUQORTJPgXhLgG3K3+bWUHxXMXJDnOmh71ie1BzphctArCnkMfsvdMnKGIwC2zDYxDhrei5pVhsKgiJYQj8Z5tX0hyX9rVdDk9W4gRI7rlkUZMHzSVl2TGsCdS0SvAXD7m4/BdLpyAQMRPDMaYs9e6xjSHuIFi1FDlWr2ZljrVlyU9C/HqpYEhi95DobFEQD/ND6aD2lVvbV5KX8osE0PBFIiPU5UKdNRUl2pD7nUJPe0JGrYKEgsCLipKMJSw61C41wUJjjTWqH+50cOYqOJNTT1GqqLEeQzs8LCsZux7VeIvDeC8LCvLakTM53crMyJm3NsHjFiUhO1Op4PyJzT7lDALE0BDvUSovbi7lkBi6HDdREDV0s3Rgu8phXsPMtlZRyfQ2UzCvFbPteZOr/QECGFU8ZCgIL9ljJHqfgjBAwHG0okTLwetbInwpcWNPOYMAR3N21hKp9k5AQUhiQsD6UIKPFdT6hJimmPGWhFWr9IJZ85i7RLxLTzx4eKhpn8/BC/BJukKgCrHkkcLdBhcSlTMqcgxzbauUKojUBKTCTjmDwCtaep5DmGAFvGEEaN3X6YKW4zViO+dSiWKQlOWNEYNcaBuYcTneknd9n+Qd5FxkYKQ/9NiH+5LC5n7w57W5fZ/fOh1Cakw4ZAmBAj5UKAR/fO2glSEvN9mUUvoRwNnzIU32W5LfbMeyk53rHv1NrK4Ev1OC0uDv3ZQ3te8cob5sh863PMYQL9z9Xb1JsUVydf4IcOe/c8/hcSy/HjCGOACmEthdLtvF0XQskxlpnPhhgRsfGWL6SZsGbqGSF8BQOLOxpSGQCrK0Fc35hCKQChIKZza2NARSQZa2ojmfUARSQULhzMaWhkAqyNJWNOcTikAqSCic2djSEEgFWdqK5nxCEUgFCYUzG1saAqkgS1vRnE8oAqkgoXBmY0tDIBVkaSua8wlFIBUkFM5sbGkIpIIsbUVzPqEIpIKEwpmNLQ2BVJClrWjOJxSBVJBQOLOxpSGQCrK0Fc35hCKQChIKZza2NARSQZa2ojmfUARSQULhzMaWhkAqyNJWNOcTikAqSCic2djSEEgFWdqK5nxCEUgFCYUzG1saAqkgS1vRnE8oAqkgoXBmY0tDIBVkaSua8wlFIBUkFM5sbGkIpIIsbUVzPqEIpIKEwpmNLQ2BVJClrWjOJxSBVJBQOLOxpSGQCrK0Fc35hCKQChIKZza2NARSQZa2ojmfUARSQULhzMaWhkAqyNJWNOcTikAqSCic2djSEEgFWdqK5nxCEUgFCYUzG1saAqkgS1vRnE8oAqkgoXBmY0tD4P8AkM/4TiDyqr0AAAAASUVORK5CYII=;" vertex="1" parent="1">
          <mxGeometry x="405" y="130" width="30" height="30" as="geometry" />
        </mxCell>
        <mxCell id="SUEe3mXOdW9LNbR-s6AG-8" value="日志" style="text;html=1;strokeColor=none;fillColor=none;align=center;verticalAlign=middle;whiteSpace=wrap;rounded=0;" vertex="1" parent="1">
          <mxGeometry x="390" y="165" width="60" height="30" as="geometry" />
        </mxCell>
        <mxCell id="SUEe3mXOdW9LNbR-s6AG-9" value="" style="rounded=0;whiteSpace=wrap;html=1;dashed=1;" vertex="1" parent="1">
          <mxGeometry x="210" y="310" width="270" height="100" as="geometry" />
        </mxCell>
        <mxCell id="SUEe3mXOdW9LNbR-s6AG-10" value="" style="shape=image;verticalLabelPosition=bottom;labelBackgroundColor=default;verticalAlign=top;aspect=fixed;imageAspect=0;image=data:image/png,iVBORw0KGgoAAAANSUhEUgAAAMgAAADICAYAAACtWK6eAAAAAXNSR0IArs4c6QAAEg5JREFUeF7tnXvMHUUZxh9KCm0IIKmApcULUO5tQaoQBAoIUmkDylUNGI0BJREaLv5TMGCE/iOXFExQiNEIUbkqpMVyESggAS1Cy50CXmipgE0FQig0VPdJZ5JlOef7zs7szmXPM8lky2Fn3vd9Zn/f3t7Z2QQqrgpMBDDJ1MkAtgOwOYBxZst/29rrt3770p/3KnVdj9+4T6/f7W+vA1gJYJWpq10DHeZ2mwxz8H1iH1s66AkAD/5e200z0+4DA4qFpt92fWZxteruMAPCA38agOmmTjEgbN+q4ul3/poBaQWAZaYuN2ej9L1v2MNhAGRMCYIyEBMa1rLr3a2pAGPh2dDlwLsGCP/62zMCtwRiapcHMIHYngTAM4wFhluehTpRcgdkSwAzAcwCcBSAXToxKvkH8SKAOwEsBrAEwNu5hpQjIAcAONhAcXiuwg+Z3/caWB4sxu2RnGLPAZDdABxkoDgSwA45CSxfP6LAqwDuBkBYHgLwfMoapQoIL5d42UQwZqQsoHzzVmCpAYWXY7wsS6qkBAgvm+YAmA1gr6RUkjOhFHgawKLij+JCc4YJZbevndiA7AngJAOFzhTRD4ekHOCZhbDcWBwjz8TyLBYgJwKwNVbsspuPAjcVVxW2BvU6JCDbADjLgKFLqKDD3BljvAS7GcACAGtDRBUKkDOKgOYC4BMpFSngqwCffBGSq307Gq1924Acb8DgDbiKFGhaAT4qJii3NN2x7a8tQD4OYH6R9HZaW46rXylQUuBaAPMA/KdpVdoA5GgDB3OhVKRAKAWYA0ZI7mjSYNOAXFg4d1GTDqovKVBTgR81eQw2CcitRUbnV2sGo92lQBsK/L7IMD6uiY6bAoTZmzs34ZD6kAINKfBSE9ndTQDyBgDelKtIgdQU4E37tj5O+QJyjZ5U+civtgEU4BOu013t+ADyYwAXuBpWOykQUIGLAfzQxZ4rILzf4FTL8S5G1UYKBFbgXTP1mvcltYorIOcDIJUqUiAXBXi1c0ldZ10B4dlj77rGtL8UiKjAUy4f8HABhHM4mFWpIgVyU4BZ5LXmlrgAwnkcnMSiIgVyU4CT8zivZODiAghTSZhSoiIFclOgdhqKAMltiOWvjwICxEc9te28AgKk80OsAH0UECA+6qlt5xUQIJ0fYgXoo4AA8VFPbTuvgADp/BArQB8FBIiPemrbeQUESOeHWAH6KCBAfNRT284rIEA6P8QK0EcBAeKjntp2XgEB0vkhVoA+CggQH/XUtvMKCJDOD7EC9FFAgPiop7adV0CAdH6IFaCPAgLERz217bwCQQA5BsBtnZdSAXZRgWMB3F4nMJcpt1xG7bk6RrSvFEhEgd0BcPm2gYsLIOxc38UaWGLtmIgCwb6LxXj1ZcVERl1uDKxA0C8r6tu8A4+LdkxAgeDf5mXMlwI4N4Hg5YIUGE2BywCcN9pOvf6/6z2I7es+AIe6GFYbKRBIgfsBHOZqyxcQ2n0LwJauDqidFGhRgbcBbOXTfxOA0P4jAPb3cURtpUDDCjwK4ADfPpsChH5cDuBsX4fUXgo0oMAVxZXNOQ30gyYBoT/6sHUTo6I+fBSonU4ykrGmAaGtowHMBzDdJ0q1lQI1FVgGYB6AO2q2G3H3NgChQS4LTUhOa9JZ9SUF+ijAlWwJB5d9brS0BYh18ngAcwEc3KjX6kwKbFTgQQALiqXVbmlLkLYBsX6fYUBhoqOKFPBVgAmHBONq345Gax8KEPqxjYHkhGIZLK4VpyIF6irAtTG5hNqVxbG0tm5jl/1DAlL2j+sc2urit9oMlwKEwtagkccCxAbJFXO5sOJsADOCRi5jqSuwFMAis2BsrZVpmwwsNiDlWHgjP8fAokuwJkc5n754CUUoFpob8OiepwRIWYyjivSVWQBmFtN7942ukhxoU4HHi2TCJUVayGIAd7ZpyKXvVAEpx7K3AYWwsG7nEqjaJKPA6wYIQsHKmX7JFhdAmADG5MRYhen1R5gU5gNjOSG7tRR4uPjjxqkR9xTTI5h+HqvUPnZdAGG+FSe/nwngjViRGrtbG1iOBMC6U2R/ZH6jAi8DuNtUQvFmZGG2BXCV+dgIj9+BiysgFxoLhOSnA1trf8ftTQ4Y88BYpxVvWae2b3aoLfADHssBMBfK1tcSUuT7Bg66VDuR0RcQGn3R5MHwOXWKZUwJGgJj4ZmQorMJ+7SmBEAZiA2J+sz3bMwH3KXkXxRArP1bzev/BxIVrOrWZHOGscBMATCpSF/gWWiYC//6rwKwogLEykxEOcRkbBzXw9+ogFh/flFQe33kmzGfsRxrQCFABKbfdlMfIxHafmAOfB7oBKDfdn0E35owyYc3pwD4zgidJQGI9Y8vfK4DcEMT0SfYx0QDkIWIj583BzDObPlvW3v91m9fhvpepa7r8Rv36fW7/Y2PUy0EBGJ1gho24dLJAE41L5hH6y8pQKyzTBkgKKxBEsxGU0n/P3sFmPhKKFjrpCglCYgdjVcMJLz8ejb7IVIAMRTYw1xGEYwdHRxIGhAbz/sAbgZwl6ldPfU7jJ+a9FCAl7JfMpVTJTbzUCkLQMrx8ZOQFhRu+chYRQrw0ayFgtvxDUmSHSDVuPnW1QLDl04qw6MAH7dbKJhK1EbJHpCyKMzfYboCb/JZ/92GYuozmgKfMDfY+xkwQuTVdQqQ6sg9BoCVsPy5mGgVbRJNtEMqb8OcHPeFEhQEI3TpNCBVMV81wBCWhww0oQWXvf4KEIaDDBSEYYcExBoqQHrpzck3rE+YLf/9TgID02UXtjCT2jixbZ/Sv1OMeegB6TUoL5RgseDwLbNKfQWYLVAFYdf63URrIUAGlJ6pF5z/zMu0fpW5S8NUmFvGy6B+ld8JYFpNzkWANDh6zGqtwsMJYvy8ZbUyLyrFwnwvfga2WjmBqArCMGQxC5BIRykXaukFzn+LBU+ZHVunMgRmFNepH+sDghY2+vABIUAiASKzeSggQPIYJ3kZSQEBEkl4mc1DAQGSxzjJy0gKCJBIwstsHgoIkDzGSV5GUkCARBJeZvNQQIDkMU7yMpICAiSS8DKbhwICJI9xkpeRFBAgkYSX2TwUECB5jJO8jKSAAIkkvMzmoYAAyWOc5GUkBQRIJOFlNg8FBEge4yQvIykgQCIJL7N5KCBA8hgneRlJAQESSXiZzUMBAZLHOMnLSAoIkEjCy2weCgQB5HQAP89DD3kpBT6kwHeLzx1dU0cTl2Wg+c1VfgtXRQrkpgC/FcxvOQ9cXADhR8j4ATUVKZCbAvxgHr9fNnBxAYSd/xbA1wa2oh2lQHwFfgfg63XdcAXk2OJL3n+oa0z7S4GICnyl+PD2bXXtuwJCO38B8Lm6BrW/FIigwF8BfN7Frg8gswD80cWo2kiBwAp8GcBiF5s+gNAeH5v9zMWw2kiBQAp8z+e1hC8gjPEiABcGClZmpEAdBWq/GKx23gQg7PNIs3xzHee1rxRoUwEuKc1Vkr1KU4DQif0B/ArA7l4eqbEU8FPgOQDfAvCoXzcbWzcJCPvbCcB8ACc34Zz6kAI1FbgBwDwAL9ds13f3pgGxhs4xoHAJMBUp0LYCXAKPYFzetKG2AKGfzHs5HwAfB6tIgbYU4OPbS9rKD2wTECvINwHMBfDZthRSv0OpwN8ALCgu63/dZvQhAKH/mwE4y4Ayuc2A1HfnFVhpwLiyuKx6v+1oQwFi42A25YmmHtp2cOq/UwrcD+AmU4Nlk4cGpDxiBMTCQnBUpEBVAYJgoSAgwUtMQGywEwDMBjDH1PHBVZDBlBR4F8BCUxcBWBPTuRQAKcfP+xOCYoGJqY1sh1WAUBAIbnmfkURJDZCyKJ8CMNPUQwDskoRicqIpBV4E8ACAJab+s6mOm+wnZUCqcTKf/4sACAvB0aVYk0dC+33x0okwEIo/mflE7Vv1tOACCLN3mXP1D0/bPs3HmgTJI4oXRKxTfTpT29YUeLJ4YXyPqUwcXN+apdE7/rTJ0eLxO3BxBYTp7T8xae78yxC7TDSgHAhgOoBphX9bxHZqyOy/A2A5gGUAHjZQrE5AA15pMO39B2YbDBDGzr8InDT1ywSEqLrAexbCYoHhln9FVPwV4NUDQbBA8N+8p0itfNtMluIVB0vt+SE+Z5CyGPcCuDSDKbhbV4CxAPFNv8pHFeCbah78tlog3kxcLE6xPa+43zm84mc0QKwfzIu5qnhUuzRxAavucQ7LFAB8zDypx3bLzOIZ1N23Aawyj1Wr2xXFp504tyKnMqN4b3Jmke7O/L9eJTog1inm5V9nnmvnJHA/X3nm6QVO+bfUsgH4Frp80PcCIfUzwaDHDt+bnTrAPKRkALGBMT3gegNL64llg6rZ0n5jAHD+i63jKv890u/lfeke5zewriv9e6Tfeu27oaU4U+mWl8WE4hQAg+b1JQeIFfPZEiivpKKw/MhSgR1LYOxRM4JkAbFxrDVnk980NWe4pkDaPV8F+M2Dbxg4tnEMI3lAynFxwgtfHt1VvB3nUzAVKVBVgE+h+HUSfjWniQl3WQFSFuN5AwphITS8plYZPgV4n0YYCAXrbg1LkC0gZR2YyUlQbOVlmUp3FeDlkgWC2zZnnHYCkPKhwOf0j5XqIwD+3t1jZSgi+0zxndwDAOxXqqHeM3UOkF5HzAsGGMLCla54L6OSrgK8d+AXbiwUu0Z0dSgAqerLswy/oseltR439V8RB2GYTX+yWINjX1O5VB+fPIU6Owyi+1AC0ksYTtO0sDxh/s13MSrNKcB3EIRhnxIUnD6dchEgI4wO30pbaLh9GsCrpsacp5DyAcUs2B1M3asEAsHg2//cigBxHDHmLVlYRto6dp9kM3vgj7RNLb/MV0gB4qvgKO25QmqdGioZkMmUXH24Tm1ZqiS7FyCJDcv/zKQyXsINWhkCL23qVJd5PYlJFcQdARJEZhnJVQEBkuvIye8gCgiQIDLLSK4KCJBcR05+B1FAgASRWUZyVUCA5Dpy8juIAgIkiMwykqsCAiTXkZPfQRQQIEFklpFcFRAguY6c/A6igAAJIrOM5KqAAMl15OR3EAUESBCZZSRXBQRIriMnv4MoIECCyCwjuSogQHIdOfkdRAEBEkRmGclVAQGS68jJ7yAKCJAgMstIrgoIkFxHTn4HUUCABJFZRnJVIAggxxQfELstV4Xk91ArcGyxzsjtdRRw+VwM12zIbfXTOppo3+4qwNWMuRbNwMUFEHb+JIC9B7aiHaVAfAWeAjC1rhuugJwP4OK6xrS/FIiowAXFx/guqWvfFZCdzVlkfF2D2l8KRFDgXXP2eKmubVdAaOdSAOfWNaj9pUAEBS4DcJ6LXR9AaO++Gou4u/inNlLAV4H7ARzm2okvILT7VmKrCLlqoXbdU4Crj23lE1YTgNA+1wvkclsqUiAVBbgsH9dF9CpNAUInLgdwtpc3aiwFmlHgiuLK5pwmumoSEPpzEYALm3BMfUgBRwVqp5OMZKdpQGjraADzAUx3DFDNpICLAssAzANwh0vjfm3aAIS2uBQYITmtSWfVlxToo8C1Bg4uj9doaQsQ6+TxAOYCOLhRr9WZFNiowIMAFhQvAW9pS5C2AbF+n2FAYaKjihTwVYAJhwTjat+ORmsfChD6sY2B5AQAXHNbRQrUVYBr298E4MriWFpbt7HL/iEBKft3IgBbXfxWm+FSgFDYGjTyWIDYIPcEcBKA2QBmBI1cxlJXYCmARQBuLI6RZ2I5GxuQcty8kZ9jYNElWKwjIq5dXkIRioXmBjyuNwBSAqQsxlFF+sqsIhlyZjG9d9/oKsmBNhV4vEgmXFKkhSwGcGebhlz6ThWQciycuUhQbN3OJVC1SUaB1w0QhIKVM/2SLTkAUhXvUABHmBTmA5NVVo6VFXjYTI24p5gewfTzbEqOgJTF3drAciQA1p2yUb7bjr4M4G5TCcWbuYabOyBV3bc3OWDMA2Od5jJRP9fBjOQ3P+CxHABzoWx9LZIvjZvtGiC9BBpTgobAWHgmNK5mtztcUwKgDMSGLoc9DID0G7/J5gxjgZkCYFKRvsCz0DAX/vVfBWBFBYiVwyjKMAPSb7zHGlAIEIHpt900swPmA3Pg80AnAP226zOLq1V3BYi7vBMNQBYiPn7eHMA4s+W/be31W7996dF7lbqux2/cp9fv9jc+TrUQEIjV7qEOb8v/Ax7zi/bWiD6GAAAAAElFTkSuQmCC;" vertex="1" parent="1">
          <mxGeometry x="250" y="330" width="30" height="30" as="geometry" />
        </mxCell>
        <mxCell id="SUEe3mXOdW9LNbR-s6AG-11" value="" style="shape=image;verticalLabelPosition=bottom;labelBackgroundColor=default;verticalAlign=top;aspect=fixed;imageAspect=0;image=data:image/png,iVBORw0KGgoAAAANSUhEUgAAAMgAAADICAYAAACtWK6eAAAAAXNSR0IArs4c6QAAHRpJREFUeF7tnQf0fTlRxwcbuAguXUVcWRAQqYIFEaQJrihNdCkiUgURXRGRJhakqiCggsKKWJBmYUEseASliQURUCzYwEYTRLG3+9lNDvm/fe93czOTct+dOed//v/dlzKZZG6Sycx3LiJOLgGXwEEJXMRl4xJwCRyWgCuIrw6XwAkScAXx5eEScAXxNeASKJOA7yBlcvNaG5GAK8hGJtqHWSYBV5AyuXmtjUjAFWQjE+3DLJOAK0iZ3LzWRiTgCrKRifZhlknAFaRMbl5rIxJwBdnIRPswyyTgClImN6+1EQm4gmxkon2YZRJwBSmTm9faiARcQTYy0T7MMgm4gpTJzWttRAKuIBuZaB9mmQRcQcrk5rU2IgFXkI1MtA+zTAKuIGVy81obkYAryEYm2odZJgFXkDK5Wdb6QRG5oYh8uoicLiIfJyLMy/+JyH+KyAdF5K9E5HdF5BssO/a25iXgCjIvoxolUIq7iMhlChr/BxF5qYg8oKCuV1koAVeQhQJTFn+liNxCRD5K2Q7V2WH+TEQ+V0T+yaA9b2KPBFxB2iyL7w3Ho4tV6O5/ReTXROQ2FdrefJOuIHWXwFnT3eLHReTydbs5v/V/ExGObg9r0NdmunAFqTfVbxaR69Zr/mDL7xaRe4nIL3Xo++i6dAWxn9IXi8gdRORj7Jte1OJbOinoIiZHL+wKYjdDD50uzt8hIp9g16S6pf8OFq87q1vaaAOuIPqJv2Y4znyavqlqLfyLiDxORJ5YrYcjbdgVRDexrxGRG4eHPV1LbWr/jYjcTkR+v0136+/FFaRsDp8pIvcOr95lLfSrxfvJG0XkRv1YWE/PriDL5uruIvL06c+ll1UbsvR/ichPBUUfksERmHIFyZuFj5+OJm8SkWvkFW9S6sMicprB8Q5fr28Vkec04XplnbiCzE/YL4ZX6o+eL9qkBEekXxaRvxCRBxn2+A4Rucnk44Wvl1OQgCvI4aXwWBF5SPhKj7JgUAqMAixiLFMXN2YMt5VXicitjNtdbXOuIBeeOr6iLxSRTzaa1Q+IyKWUbf375Pr+SBF5amjnqsFRUdnswer0hyGCD8SmyRXk1On/HRG5gcG5Pm2VuwKPh98kIg8XkU9auOJwbedlPqU/FBHeX2rTe0XkfuGxsXZfQ7bvCnLBtPykiJw9PaZ9bKVZwps3dSLk7sDL+xknKCPHqDODE+IuW1igWrqyvE1Erl1JNkM3u3UF+frpLePx09HlEyvPEl/iQx69u8ryPyLyjVP5Hz7AEx67lpfz3KHD18v37Ga59VdZbqsKciUReXX4QreaON5Qnj/TGQv/h2bKsLNcoRXTe/rhyPgkEcGIcfS0RQX59clS80VGUX1LFgjRf1dbUmFPWS7nf2p8Rypl6W9F5CsnE/gbShtYQ70tKQgWoAeKyEU7TQwmVBwaWVilROTgLUsrV6jHmwxgEoT9HiVtQUFuLyLPno4ulxtgBn8z7F6lrFxRRF4SUFBaXtLn+MVo8ILp8fJr5gqu7fdjV5C3TgvqWgNNCjA+VjsY7iG8Uyw1G9cUB+ARvNccMjDU7LtK28eqID8X3LpHcQ9h8jiOcF7nJdyasC7x+m2lfFr+ePHnKAie16rp2BTkEeELNlJUHwuEL+ujMixU2sV02+nV/mnBOtd7bvkg/Mb05+baQfWs31uIVmO/3vQC/rLJI/VTrRo0bOf1lXaNXRY5/7OLXGe6c3FXuWR4+Ow9x/8RPIVXiQrZW3gW65AF+PmDmD7T8fBe8G0Vdo1UEfggREWwkGXNNt4vIjzMvqhmJ9Ztr1lBiF+4x6BRfb89xal/ntFkEaCFUuC5O5LlqnR4bxcRdnwMFsPTGhXknsGrVeshW2NymHQsS3Ov4Uv6bu13tYS30rK4rRDT8mWlDbSqtyYFwV+KL7P2NbqWbHnhvnpoHOsZF2aOfpiZcUrEF+sSwdLE78j+50XkTicwhJ8YhodjpX+djohPEZFvH3WAa1EQvjZf3ME9JGfe+Bq+L1n8AFPnyhVLz0lA1lxwSYdw7PT3InLXYPUaaqy5E9mLab6g50zOccSEHyvxVnDlPYNj52D8rQmF57HvydOi/ZOGOzYfC+CIiMcZhkZVEB6ZQNyo/UoM8mBKfM0tUhMsnWC8eHdfnwGjroEGfxJvpGe49U4Bjo0cbbGWtSDmBPjWu7XobK6PERXk96YItusvOKbMjZHfcRT85+AoSMw1bueYhw8RCnrH4K2KD1dtORHimu6SmEMtL/pzMgJQjhCAk4h7AtCqrbwTPhT6+4E55mv+Xnvil/DOosV92tKUiZB5QPzqJYzsKQtvhL3WPOr9apLjI0L6KNmerY5i8iHgjpdL7DItQR3+WkS+ZMrI9ce5DFqWG0FBiJ4j+MZyC+d48qwKoANPEJEHV0ATYU45g39K8GHieFmT6OvHROS+ik5YuK3wiOH3tSJyUwW/RVV7KshVQmYkkldaEh68uFvUpL8zRD1J+aRdPhQ1fcks5QNq/PMaQiPxzvTclvkZeykI4a58Daz7J2nMl9bUjKRtAoWGsrjMjBv4IaxlNfIZEm8DVnErA8c/BusmYBtVyXqBzjH7jAAjU8Mt+yRghDm+Sn9/Z8bltrRtq3q8xD86mG2t2jzUDrBJpLRuRZihiWbkrlmFWikIWzFAZJetMooLGsU8yQWyJeFTNGoqAc7thOjumm1rywezMG7urYAlsFAy71zkzamFgrQAOeP40Atx/V0DutkTsMQdryfx2PiYhkFcGGZw7AScz4xqKgiuIZhYaxyndgVw6DXaTFAnNNQLp2ofSxw1AMBbYratLaNXhK97zbWWjuE9lrtXLaa/ZbLEfF9tySftb11BeH3G/R/UllEJ9PhWuxo+bCZeCLUUBH+eVhYNFsSc01/NRcPx7vSaHcy0TZz7F3Tsf0nX3EXPNX7zOtS/yUezhoIQENMj0QwXUo51LYkJx2+oB4Gv9VmVzLa1x4NZmFzutd1WUEbNY6j5OwSCbb17xMmkX0s3lZxFwpuCpQdATp+UYddCOUGJXCuRmOisCm9hqTx4L7mMRkA1dhCOO72Iszh+V+T3qE1cBnuD0aVBWrXHa9U+eF7fbXVHmGGK9aBC7K+hIL12kCgrFPRHKl5YyfNBznHr7E6lC5Dx/kr4Gpe20aIeCYnwPsDfrBWRhYsozmKqoSD4y6i0tng0p1bEhRs7PL47FsSRBnzfEaGFGB9y//4Q7GQxXss2gFwlc1drismLivutoSA9j1j7BMF5nYAfPHF54V1CWKd45/jyTneNJbzGsowX9HqcEnsTiYPYcXt8MHGxIRRatWPVUJDeR6yTFgXKy1eFHBt/JCK8gqdEBCOga7jEsFOY2NI7rdKe9xMgj7iEqy7ICrlx98BgQ6z7cAqCb0xUPJSltilPIcejr8oHgZfslvA6+Kbho9aLOGqy/ti1hlSQ9IjFv1EYV5Jey+WCflk0+CjFLLk1uCEA62srm23nTgdxrfE3D9WrUJC4m8Rtr8bkeJt5EuB+QpYq3gesCFwv4jJOs2qwoJ3dtbVKBYnj9mNXwQowroKHtUXeFLyG90EWGbN7sDkUI4LwpYVWrSAMhAFALf21Wk3aWvrh+AsYRQmgxXnBstdrrKwf+D90dI8KQggzRpdiqmHFSi/pDOKkPvzYVTx15y8Q5Ad8J+ZMQBRuUdAc9xPCZX86oy4pDLjHtHbpiawx5hyXoqEVJPVunVOQOHBXlMOrk8nGfRu/Ly6dZMvlXYfX87cl1bRexSfFUQAigXdsL7Mtw8xZI3G9Da0gAIzhawPlKkgsu2WLF19GXCPibsBDHy/QpJPLIasH2t3UDb3BKZALp5Cc4/iuguBmgkyLqcYRC2b+UkSA81miIHEQ8YhWi7diYRlV5IWX3YBHykO7wdKurMN+mTegUEF47DUPc/eMfTKKOwdKhVOk2qxdc/CAn4GvWtoHC6mHi8LSxbmvPAuMsz3mVF6037xwN1jKg9XusbTfWuVL5z5aSIlmRUHUVLp4czsGV/X+SsjOUmHl8qgpx8IEvpPzO6ZT4jN27waa9nPqvkVErp1TcAVlDpltc1nneEiCJTOY0toKEgeGRy1pxHLOkYe+yD3vJ/SNDxeXZHYD0i5XBy3LXBXHsHssuWfsE8u7wwOo6r6xr+FWChL7Brn9szMnfl+x6AjZmm944ev2M0HRFUMwrQrgdeswY8sB5JptD/WJdQ+AkGpI+D0WGqnUuJxqovF6HrtIo0D2WoDwelP65tSbl6X9a+YQxfqFmfR1S/nZW76HgkRGQHUnXkCTYizHNm4iqD2N8DBHDkJc53sQMD/36dGxsk/tPQO40WagIDUUhEelJWfBnw05Kkp54WvSC/aHfl8TApSU62Zx9bVlv2W340/pKzymceBFf2uxpBQVShflSV3+eSFAGAFMn6kYS8/dBJMuUDa4YrSgh02WwSe16MioD81xinsn7xklZlssfKpUGDUUBGHwmv7EAuGeOTnBcZHXALFpJqOA5VOq4O7BsYf0zjUJ/6ua2a6seNfOBbtzadIcPiKAa6je0mooSDxjshuU2qO/U0QepdiOmeCeO0rNczLHDPKgjExas63aC3daPygnNJyCpDHpoNqBbldKWjNmT7d6+gZE+ralgz9Q7/0dkeznhqI12/Lo+nUi8hNzHZ3wO1gCGFB4c1sFLhZJZs5QDJiq2sCcnrsJk859gV1RS5jIP6htpFJ9zXEKxeKN6e5K3nbzJg6pILu2+fgVf4iIPE0hgM8Jrhya/H2aSVSwfn5VXntvF1zVS9vC5Vz7sSnt+1A9rUxx2de6ypwTMMHgMfXWWI2CRKZ5ZCMzquYrCDgaWEulQBC9gSRA/Sj1JhjJrUR7z8CgASp96T0VZeANjSNn/GhGb96ozKtTkMg4QtGYdGnndUrY/55uK/QNfvCSI4XWTcdq59DeM1i0WJe0R04MIVfbGdQqFGT3K7fLdDomwjxLYqLTNkgDoAEH0x4RNAuPB1XcVoi9mKMRAPm0srJIUcFd5S4HhHV0CsI4+aIQN6LJs0GiSnxzNG8DPS/yGDJAIzzktgJKYav01vvWntY9hMszAXQaQinwoD7pJf4oFSQKjbPklaYvKskYSwlU9/spgrR63k/o+7UHHsbwWtX4rJXKsySqL+2LueQYqX04zTVtH7WCRMGSa5vc1xrSwl9qv5ga3jnG/GjitoIrN6GvrUlznELZQVpUZXearH5vEpHrLxj4JhQEeSBgohExDWvovcrc7D2PXVj6gOPh0Uxj2l4qP41i0BeL+gZLO90pz53sAQUngc0oSJQXRwvOntwvSumrwtlVc0TpqSil415ajzFiji+N+uQYBFqjxv2ftA14T5TO1SoUZN9DYanQ4yRjqeKBDEtOKWlBJHq61ZeOOaee9t6FYj3CIO034cykn9DQroIMmWFqF8DsJDPvUmFYmAkBV7jm0o6T8j3vJwq291bVHqewrmlTK1hmn9pda2B64YFRTDW8eVPgOBizVJDY3pPDV6t44OE1H9+mUlrzsUurGPjGXaVUcKHeY0O6OO3pImVjd62RJps4o2KqoSAwgx//FwaurBUkDpbtk/sJX7FSwiTMhbA0yk37qlzKd2k9rfcAZlt2DE36ad5DWLSaN6tD40/X2vNCvpJSWZ1fr5aC0Pb3hJiOWgoSBw4AxK7LwVKhAO95x6WVkvI93epz2NYqMvXJ1QiOgIZqO1vGtfaUgHai4bW6gtAB3qs8Elluo4cG/bLQn0YoKBsJZkppxGOX9jj1xgBOUSoT6rHLn1X5g0w/KAgPky/QMJvWrbmDxH4uLSJvMPjK54yZBUrsxaNzCh8ow72EFNKat4cRFEVrTAA2ldzmxNuX0oODG7oqqi+z83dMqJY3CuDfmVXmi7VQkMjFDad7CVYozcV4fkQXlGBy7xps6rl1dss9NChb6e6nNZ+W8q097nFPAXziWaUMhHo8dLaYa0IoSNO9NMV31vBaKkhkiNQI2M1LL8ZZAwuFQLW47pIKe8oSNnsbRRvai/GSrrU7FxBMd17S4Z6yWnSa3O6RK/cigqWqUQ8FiYMB5Bkv3BbES7zmEg6P2gumdvGeJCdt26SrAFFGQzzEsmuX7rhL+ubITrBVdeqpIHFw4GhpJydHUJylnzAV1ATqwCchohoTpWUSU+3uhNkWWB0e1EqJHQc39IuVNrCgHm4seFRo7kULuqtr5l3CCADMLxGRSy6pVFgWlwYsHa8qrE+17wrYXyUfmBhQxuJE0Ura4A0oKmlJ6DE8YMzgqKshFuwVNA1k1sUnDxMzXs5NqWRyajLICzkevCWTvpQvTWx47OvVBbCjMetWPBaxC0Q/r5jSOM5L/P/RB417WzpnJbvRboq1pXKjPDsOcfW11w/j58OJw2kJcQx7fUnFWKfGAImOA5hBQ7zU3lzTQGZdJoBHQu3FdEnY766CwGp6h1jysLpEQbDsaZNwPiO4obcwsLxd6TOHXDHXg5NVTDUUhIcpLuBaJzaOEAipBcwNUJ6PD2ACpcLEKQ4Xm4vONGCpIDmXc5SIrEs5aZ4Psc77AmiOLcy2gFTfMkDQls4F9R4ZjsKqN5gaChIfqLBQvVIzwlD37OkrANS/5uEulw0gL+mP0NdSApbom084fswpSPw9p/85BWF3/Iqchk4o08qIwljILai9FzEUQDzYPfg4DKcgltCj6bxh8ybKrMX9BIgdHjY1BEw/QAy71EJBMElfWcN8eNTlmNvCbMsj382U/Mbq0QeQ/x4SF2sXnsYCejSVXeopbCTTvc0wDh7O2FE0BKLi5ZMGaioIMKegFOJ2UUqPCV/xFmZbvvIAdVjRpqFHUyFyL+EYpLqAZc4KJlW+Spp8HBw3caYklLSGgtAm2brA2CqlK4Z48lSZS9uaq4eJm1ADzb0o7cOhRw9I/IHh3Hra3IwY/M7XjvM8ZtJSSmGJ0vtD+u+ldxDM1b1RYHLlgYUOpSDjsQWtEno0B1nRAno0FTDBMSA0tjgva2GJeFjjkZKIvAhOUKIgPHjiI/ZWxUoDpRATdwuzLXyqsj3tjNOhRwsm/tDFuKCpE6uwoF+0EFt3t0HCAJ4ezOFYEy8RLF+HdhC+voS6YkInHZkGYA9jB0fGFp4LvL+Q7JRYGwty6FGlFLE+nRdiGZRNzVbH1Rq3E0y7FnT7YM3BNJnuKnwteaSzIG2ulVwe8Jfi7kbsuQU59KgB9Gg6EdjTAZDQOBbmTuy7QjTjm3MrdCiHdwK4U7WPoeyAxP1Yemo79GiyYLRn/N21h6n2Do0WBhd4jhMjEfHZGDNamG0tQKpT2Tn06IGVZAU9mjb/B8aXxENKgKsNMdFWlppSZSM3Ivi4Lcy2HDUxknC0tSCHHs2UogX0aNoVGWKxeLVYNB8KRzwu4q2p1ceAe9JzReT+RgN06NFCQVpAj6Zdk8Odx6U5x8JCdk+pxrGD3B4qALNMRrCsETlZ22zLDs/xR+uOkw7LoUczJ/mkYhbQo2n7xJtzmazhtJn2w4LCBF0rTBTnSKxpmIprE0FSxPm/x6ijmtCjasiiGgtjLdCjcX7xEiYA6OpGE35SM5g+cczDaICLvZZIZspOqM3elMMH7y7MrZVJuzb0KO9GasfWGgqCsF8uIlwSoSUBQDkTFctYQI+m/RGGy32BB7wWRNzDuQUIgLhyEwMOtGtpmoAl48Npk1gQoHUsqBX0KNBFJB9SUS0FgSliEfhScryoaXu3gB5NhYgF5T6NFh/9Ih92E2z9uKnjas/RD9cM3EBuEjICA+LGEaqFUkR5WET1pbLVIsPMLfb4MeaOaRFXUv3sTWQYXx9V0MqcVMLvFtCjaVcchVicNT8imUNrXgxlJQ5cA1KdMt0KehQTu+kHpNXkk06NLU99JpxZKhbQo2kXOBQSFakNPmq+wgs7xKwOcogWpDp23wp6lJ3jmUlex8LhX7haKwWJPRPDcWMz7g83ZAE9mraOcuNX1CImu4F4LtQFxzwC0XiHsKJW0KPWnhenjL+1gtA5WyBIflw2a5MF9GjKIwk1cZprcWSsLZvYPvcCLHhWYGytoEdJ0EqCHP6uRj0UJA4G1wS28xbOhBbQo+kk4HPFI1lP+WkXBS/9RCBqQaojH62gR7lngFgCwEN1GmGCcf24R4PFZgE9mk4ITomAmhGquibinvbC4DtlwXdL6FEMPnglNKMRFCQOltDR6zUYuQX0aMomuUgePsWEX7wB75ouuGdgQlYltdxhoBX0qAVKS5HsRlIQBkD2Wcyrly0azbJKFtCjaY+8+5BRq7albtkoLygN3hdvUlxoLagV9CjvQ3cTkZdaMF3SxmgKEsdA8prHWdu09wjICno0bRrDANA7IxALDLQTDaJ9Oo5W0KOYbTl637u3EEdVkCgXvhy4ONTm0wJ6NJ3LlrEY+9YQ7iGvMMjZGNtuCT2Kq36Lo3aW7tVeeFlMZBTah2CRUW1xEQvo0bRTvt68obSI5ov9YmbF/GlFraBHebsCvoj+hqG1KAgC46sMplKLxzoL6NF0kkEiuVVln7T3hdBaLGsWRGhBC+hRrGo8wuKuPxytSUGi8HC3xhWidlCQFfRo5Pv0KRUy8QmfYXxktHYPaQU9yv0PfDD89YalNSpIFGarHCIW0KPpAuBhFMdKXG5Kj14sLsD3cM+3euhrCT1qjclbTcHWrCAIBXcVEjpqE/bkCNgCenS3H6xdACtcNbyjHHJhwarDTvGB6WHy2VMjVlapyE+rNyhrTN6ceVOVWbuCxMGDFMjRqwVGb1XnuOB6g78XnsQEnhGqW4taQY+i4CC9EJS2KjoWBYlCx5mQSagZoEVfFtCjPRdKS+hRa6taU7kdm4JE4fGVt0TcODQp1tCjLSa/FfQo7u5YwUZGm5yV97EqCAMnGvDFjdIUO/ToR5Ya3ragOeKftno6ZgWJkwN6BmjotTGwsCxtGXqU8RMQd9PVa0UygC0oSBxuy7jorUGP4oGwNrf/LD3ekoIgEN4gQAS8RpZ0dIW2AD2KDxugdQS+HSVtTUHiJGLpwjP1Ug1m9RihR/EywJFUm2K6gfh1XWxVQaLUyBl4rwYx5scEPWqdPk+3givX3rqCRPG+riJubjqFa4Yexdv2TiGgrfKyHKd5V5CPzAVuH1zkLfN2nzTTa4EeRanZaa2wssZZ/RmcuIJcWEggfRBnDqh1CxoVerT2sbCFbNV9uIIcFiGp20iqOWKMuXriZxrAMfNak4WKXW7T5AoyP/0jxZjPc6sr8eGQ4uCpumaOp7YrSN5cglbynAlO/3J5xVdXCrMt9y92TKdEAq4gy5YDX1YyxtZ2W1nGla70qr1tdUOfr+0KMi+jfSWIZryZcehsGSfltUhxcM+wc5S3cuQ1XUHKJ/iMkD/jzPImutTEbMtx8UFdel9Zp64g+gljoQFy1wJtRcPtUXrbagSSU9cVJEdKeWVANz+7AdpKHjenlnpniI/hb6cFEnAFWSCszKKtcGtz2AGRBbypJqkCchhaWxlXkDozxgX++ZOLBok3exBmW3KikJrASSEBVxCF8DKqcjchXqJFkqDIDtlxr5PBmxfJkIArSIaQDIqQ+OXWldFWSEV2XxE5z4BfbyJIwBWk3VLAykXMeg3oUdAVz2k3lO305ArSfq5HhR5tL4kV9OgK0neSIvQoj46kcCMDMN7D6byASghQHbCd4HCdO7FsDT3aVwoD9+4KMvDkOGv9JeAK0n8OnIOBJeAKMvDkOGv9JeAK0n8OnIOBJeAKMvDkOGv9JeAK0n8OnIOBJeAKMvDkOGv9JeAK0n8OnIOBJeAKMvDkOGv9JeAK0n8OnIOBJeAKMvDkOGv9JeAK0n8OnIOBJeAKMvDkOGv9JeAK0n8OnIOBJeAKMvDkOGv9JeAK0n8OnIOBJeAKMvDkOGv9JeAK0n8OnIOBJeAKMvDkOGv9JeAK0n8OnIOBJeAKMvDkOGv9JfD//URYFHf+uVwAAAAASUVORK5CYII=;" vertex="1" parent="1">
          <mxGeometry x="328" y="325" width="40" height="40" as="geometry" />
        </mxCell>
        <mxCell id="SUEe3mXOdW9LNbR-s6AG-13" value="" style="shape=image;verticalLabelPosition=bottom;labelBackgroundColor=default;verticalAlign=top;aspect=fixed;imageAspect=0;image=data:image/png,iVBORw0KGgoAAAANSUhEUgAAAMgAAADICAYAAACtWK6eAAAAAXNSR0IArs4c6QAAF7NJREFUeF7tXQmwZEWVvfdV5vv/IzsI02wBCGMEjCA7yBIgjS0xbI4027CMA4rsgsG+CMqmw4BCNyICAwIj0CDbSDCIiMAALZuiYDihyCKNgOzI7583q+7Uberjp6e7f2XVWzKzMiMqiODfvMu5efq9ly/fvQhpJAQSAgtFABM2CYGEwMIRSARJqyMhsAgEEkHS8kgIJIKkNZAQ6A2BdAXpDbc0a0AQSAQZkESnMHtDIBGkN9zSrAFBYOAJsthii61krd2s1WqtiYjzfsz8BiI+w8zzftbaewdkPaQw50NgIAmilJqWZdlWzPwZANi0i1XxFgDcBgD3E5H89+Uu5iSRCBAYKIIopbZBxMMBYHofuXuOmWdYa2cAwNw+9KSpASAwKARZXGt9AQAcVGBOnkTEbxpj/rNAnUmVZwhET5ChoaG1Wq3WLQCwbhnYM/Mp1tqzytCddNaPQNQEUUptjYj3lQ0zM59hrT29bDtJf/UIREuQkZGRVay1L1QI6cFEdGmF9pKpChCIlSDyzPEAAKxfAYYfmEDEPYwxs6q0mWyVi0CUBFFKzULE3cuFbsHaE0nqQL08m9ERJM/z6cx8Q3mQTar5SSLaLG0BT4pTEALREURr/XMA2KZO9Jn5WGvteXX6kGwXg0BUBNFay3uO7xcDTV9anutcRdIb975grH9yVARRSt2GiDvXD+s8D44mom974ktyo0cEYiLIsNb6dQAY6RGLoqfdQ0TbF6006asWgWgI0mg0dsqy7PZq4Vu0NaXUqqOjo3/yyafkixsC0RAkz/Nzmfl4t/BLlz6CiORQYxqBIhANQbTWsrXbzyndMlL4XSI6tAzFSWc1CMREkEcBYKNqYOvOCiL+2BizU3fSScpHBGIiiDygL+MZyL8movU88ym544BATAT5KwAs5hB7FaJvtbd6l67CULJRDgIxEeR5AFi1HJh61vouES3R8+w0sXYEYiLI4wCwQe2IftiBPxDRWp75lNxxQCAagiilbkTEzzvEXoXog0S0ZRWGko1yEIiGIFrrAwHgsnJg6k0rIp5njDm2t9lplg8IREOQPM/XYeanfAB13AdE3M0Yc6tPPiVf3BCIhiASttb6ZwCwrRsE5UlrrVd+77335pRnoRbNU7TWK4llIpLYXqrFi4qMxkYQeWs9syLsJjNzKREdPJmQz3/vFL2Q0wmfYuYpiDiPGPMPZp6DiEKU2cz8I2vtT32Oy8W3qAjSJsdHtdaPebLduzERiS9BDaXUZxFRKk7uCgBr9uj8q+0dxVsR8R5jzA971OHFtNgIIrdZUjnxoprRnUFER9Tsg5N5pdR2AHBYCTuBDyPiTGPMNU4OeSIcHUE6zyJ3AcAONWH8glJqy9HR0SpLDvUcqtZ6EyEGABzQs5LuJt7dIYoU8QtmxEqQzQHgTgBYqoZMBHPEXSl1nJRPrRij7xHRlyu22bO5KAkiaCiltkVE2dWqclxNRPtXabBXW1rr6wBgz17n9znvESKaCgBv96mn9OnREqRzqyXldx4uHcX3DdxLRHIf7/3QWv8vAKxds6NNaT1BRHJEyNsRNUEE9c4LRPmYqpTi1WIDEc81xpzobZYnOKa1ll4nS/riq1JqldHR0Rd98Wd+P6IniAQ8MjKyqrX2OACQHa5CR0iFq/M8v5OZpxUKQJ/K5P2JMUZOYcsVxbsxEAQZR10pJTtbh8oRkAIy8UtEPMMYE8SujNb6fClFVEDcZai4gojkLJ13Y6AIMgH9KUqpgxHxaz1k5G1EvMgYI5UT3+xhfuVT8jz/OjOfWrlhB4OIeLYx5mSHKZWIDipBZJfrdFeCdG6nzgGAsUqyU4ARrbVseT9UgKoqVGxBRFVtqnQVTyJIVzC9LxTS88Z4WFrrqwFgX4cw6xS9hoj2q9OB+W0ngjhkIzSCKKWmIuJPHEKsXZSZd7DW3l27Ix0HEkEcMhEgQW4uaEPCAaX+RJn5Fmvt5/rTUtzsRBAHLEMiiNa6ypekDih2Jbo5Ec3uSrJkoUQQB4BDIkgvmxAOUJQq6hPOiSAOqfYpcZO5rbWW3SC5ioQ4ZhOR7L7VPhJBHFIQCkGGh4dXbzabf3QIzTvRRqOxxty5c5+t27FEEIcMhEIQTz4ac0B2gaJefDaQCOKQxoAIIl9UFn7uzAGqIkS9+CozEcQhlaEQxNMieg5Iz3spe5O1tpZW3hMdTQRxSFsoBNFaPwgAWziE5qPoQ0T0qbodSwRxyEBABJEH9NUdQvNR9FkiWqNuxxJBHDIQEEHkMGXuEJqPooaIhup2LBHEIQOhEEQp9eLCirw5hFu36Gvt/o7L1+1EIohDBkIhiNb6fgDYyiE0H0W96M6VCOKwNAIiyFUAEER1lYXBj4h3GWNq/zw4ESRCgoR8DmtCOq4koi84pKcU0UQQB1hDuYLkeb4bM9/sEJp3ooh4jjHmpLodSwRxyEAoBAGA5bXWUkA62MHM21lr7607gEQQhwwERBAp4v0GAITaYfdVIlrBITWliSaCOEAbCkHyPN+dmaXmbq/tCxxQKUX0u0QkvV5qH4NGkBXyPN9KvnvuVH//mEsGfCeI1vqTUoyamaW/R7ADEXc3xtzkQwDRE0QpNS3Lsi2ZeesC2rO9AgC/6fyeBIBHiehXHiRyRGstdbq8+Fe3HzyY+UVr7ScAQG4Rax/REkRrLe8BpOfFp0tG+bn2S7m7mfkqa628oKt0tGvtSrXEcyM4WjIPN2Y+2Vp7dqUgLsJYbARZbgIx1q8aZKnIkWXZVVWUI200GjtlWSbPGetUHWeJ9n5HRPKZsBTY9mJEQxCt9RHMLA1hVvEAWbmSXEVElxfty9DQ0Meazeb5iLhL0bo90HcUEV3ogR8fuBA8QYaHh9doNptnAsA+PgHbuV24Kcuy04wxTxfhm9b639tNZ44pQpeHOh4nok19q/IeNEHyPN+HmYUctX83sIgF9zIAnEZEl/a6KLXWXwKAf/Opr0evsSxsHjPvaK2VtnlejWAJorWWS3FInWSvbjQap7lU6lBKbYOIFwDAhl6tmoKdYeaTrLVSFNy7ESRBtNbSMUoa3Ic2fgsA+3XRP136vc8AgD1CC7AHf704lLgwv4MjSMDkGM/Bc1mWTR0bG/v9gpKS5/npzNxL35Ju16acb9q2W+Ey5RDxDmPMP5Zpo1/dQREkAnKM5+sVIpKeiX8Z/x95nu/FzHLb+NF+k7qQ+c8j4lGyBa21/kq7RbbcutU5vkxE36vTgW5sB0OQiMgxnpd3iWgZrbUQRW6nSvsCkJm/aq2VFmwfDKXUlogodj/ZzUIpUOatVqu1T7PZvKNAnaWpCoIgAT6Qd5uwFgBk3Qr3ICfF12RbmBYyV47Fy1vrL/ag23mK3FJJKzjfWz9PDMx7gnS2cq91zsYAT0DEHyPiMWNjY9IPfdLRuZocBgB7Tyrcm8B9iDjTGCObK0ENrwnSeQn4U8/fc/iU8KeZ+Rhr7X/34pQc7ASAwxBx517mL2CO9Pi4lIiuKEhf5Wq8JojWWq4c3r0hrzxLkxuc2+64+5WiHnqHhobWbjabu3WIIqegXcZsZr4TEW/vYjvbRW8tst4SRM5WAYBX53JqydAkRuX7D2PMCSX6tmKj0dgky7KVmHklRJzCzFPEHiK+xMwvIeKcVqs1p9lsPgYAL5XoS+WqfSXICkqpxxFx5coRCcfgDY1G44S5c+cG3QfEd7i9JIhS6kRpLO87eDX59wgzH2+t/VlN9gfKrI8EWUJr/TgArDVQmZg82NcA4LiQH3gnD9E/Ce8I4slbXq8yhYjfMMac5pVTA+KMbwRRnauHfJOcBsA1SqkTRkdHX0xg1IOAVwTRWh8MAJfUA4VfVqXIhLX2Ab+8GjxvvCJIDK3DilpCzDzVWisvSdOoEQGvCJLn+ZzxPfYaMfHF9GVEVMkZKV8C9tEPbwiitZbG8Q/5CFJNPv2ViBavyXYy20HAG4IopY5FxG+lzHwIgY1jOK4Rck59IshtBR6SCzknH/guL0uNMSdHEUygQXhDkPb7jzfbX7ktFSiOZbn9WyKKqTBcWTiVptcXgqyotf5zaVEGrJiIPtJ+g/5ewCEE7boXBNFaS8Ew+XYgjfkQUEqtNjo6+kICph4EvCBIp5/FrHog8N7qhkT0hPdeRuqgFwRRSn0VEaV8fxrzISC9Pqy1P0nA1IOAFwTRWn8HAI6sBwK/rSLi3saY6/z2Ml7vvCCIUuoWRNw1Xpj7iuwIIpLyPGnUgIAvBLk10nL+fafU97ZvfQfouQIvCKK1vqhdZfBwz7Gqy71DiCidcK4JfS8IopSSxjfSLSmN+RBAxH8yxtycgKkHAS8I0qlL+8N6IPDbKjNvaa190G8v4/XOC4J0Kvulj4MWsM6yLFtrbGzsD/EuQb8j84IgIyMjq1prn/cbqnq8I6IlAODdeqwnq14QRNKgteaUjv+HwLNE5HN7uehT5hNB7gaA7aNH3C1Ar7svuYUSprQ3BFFKnYSIZ4UJY2leH0BEPyhNe1I8KQI+EWRbREzVAiekjIiWBIB3Js1iEigNAW8IAgAjWutX2+2O5fuHNADS84cHq8AngkCe59KBaEcPcPHBhZlElE4X1JwJrwiilDodEcvs8Foz3M7mZ3UquD/jPDNNKAQBrwgCAFOUUo8i4kqFRBeJkgp6gESCVPFh+EYQSFeRhSb5DQA4gYguLX4ZdK1x8aGhoRWbzeaKWZa9Y4yZAwBSdT7a4R1B0lVk0rX2WKc/SKllSYeGhtZqNpvTEXEnAFix81tQITsDAEIU6TZ1R5ZlNxtjnpo0ikAEfCRIuop0t3hmyafKRRZ0EFK0Wi3ZJJGP1/p5afuwkEW67YbU8nlBsHtJkHQV6Y4hIlXQ88nSeZ6fIFem7i13JdkEgJlZll08Njb2u65meCbkK0HkbFZq4tn9YpHnk2OJ6PLup7wvmef5vswsTUDXdZ3rIP+W9ElvNBoXh9brxFuCCPipDbTDEnxfVJ5PjrbW3j/ZzDzP12XmUwFgz8lkC/z7M4h4vDHmxgJ1lqrKa4IMDw+v0Ww25WE0nWh1WwY3EJFcgV9Z0LQ8z9djZqlD9vduaouRljN3xphTitFWrhavCdK5BdiHma8tF4Y4tSPimcYYuUp8MEZGRlYmotketNi+noj28h157wnSudW6sL3fLv8ixjjkvcaXSgzsDUQ80hhzTee8m2zJLl2iPRfVs4hoD5cJVcsGQZAOSW4AgOlVA1SmPUTcTxZunufTmVlIMrVEe78AgA3k0a5EG72oPoaILuhlYhVzgiFIhCQ5eL634ksopQ5FRCHKmlUk3yMbB/WyA1eF/0ERJCKSHE1E315QgrXWG3Vuucq87apibTnZQMS9jDHXO02qQDg4goROEmY+2Vp79mS5rei2azI3qvz7r4hI2mDI0RVvRpAE6ZAkqAd3RPwzM5/ieiuhlDp+gG67vHseCZYgQpI8z2UL+Ezf35Mw8y1Zlp1sjHm6l38aR0ZGVrHWynZt7LddvyeizdqV/l/vBacy5gRNEAGk8zJRSLJPGQD1qZPkqmGtLaR7r1Lq04h4Ysm7XX2G3N90Zj7NWvuN/rQUNzt4goxDIWe35EyRLx9bMfNtAHBeN8c+XNOptT643bfwuEh3u+QqsrYrJmXJR0OQDkDyRaIsni/WSJTrmfnyCrpCKa21FPw+pqzFUZdeZp5mrb2rLvsT7cZGkPHY6iDKlR1iVFpjOM9zaRP9TWaWD5tiGRcRkRcdx2IlyIeIkmXZpswsD3/LFriC3mBmOTX7ACLeQ0SPFajbWVWe57sxs1xRajmA6Ozwoid4c5sVO0EmpmFZpdTGALDJ+K+H2zBpQ/AQIj5ojHlIPjMteGH0rS6WXiuIuJ4x5td9A9KngkEiyIeg6qU4BBGFgNeSWuu3+lwXtU9HxN2NMTfV7UgICS8Fo1gJIs8kzBxD0QQvmpcmgjjQL4QriFIqihrHiHiOMeYkh/SUIpoI4gBrIogDWP2LetH6IRHEIZGJIA5g9SmKiHe1N0Km9amm7+mJIA4QhkCQPM8/wcxPOoTlpSgz32St3b1u5xJBHDIQAkEAYDmt9V8cwvJVdEan8ESt/iWCOMAfCEGkXNKYHHZ2CM07UWY+yVp7Tt2OJYI4ZCAggvwRAFZ3CM1H0S8Q0ZV1O5YI4pCBgAgib/y3cAjNO1FfDiwmgjgsjVAIopQ6BRG9+abCAeJxUUtEwwAgtX1rHYkgDvCHQpBOWdHfOITmm+gPiOgAH5xKBHHIQigEkZC01nKYcnOH8LwRRcTpvtTvTQRxWBYhEUQpdSoift0hPF9EX2v3hpe6YG/74FAiiEMWQiKI1npDAJBqig2HEH0QvYSIDvHBEfEhEcQhEyERpHOb9Z12hRAvvszrEuZRRNzUGOPN81MiSJeZE7HQCDI0NPTxdku12QCwlEOYtYki4nnGmGNrc2ABhhNBHLIRGkEktDzPz5K30g5h1iX6aqPR2Gzu3LnyktObMagEkc9vj0TEr7lkgpmnWmtL7S7r4k83stIPxFp7n+8lgpj5DGvt6d3EVKXMQBFEKbUDIsr++j/3AfJTzHxjpxjce33oqWxqnue7dzpKVWbT0dC1RLSv45xKxAeCICMjI6taa6XQ2uEFovoEIn7LGHNdgTpLU5Xn+ZlSOLs0A70rnk1E3r6viZ4gQ0NDa7dardsB4OO953CRM73allyUp1prIXOVTTsng/x1IlpuMqE6/x47QYbaZTqlNM8yJYN8LxFtV7KNQtRrrb3o1MXMf7LWrlpIUCUqiZogWmvpH15VP76QriRHA8D5Ja6ryVR735twPIBoCaKUuhkRd5ssU0X+3dedmAXFqLU+EAAuKzL+bnT5+K5jUX5HSRCt9X8AwL90k7CiZRBx74Ae3PdkZmmnsH7ROCxA36vMPNNae0YFtgozER1BtNZCDCFIXeMJItqq3Z4giC1geZeotT4MAA4FgLVKAE2Oj8zMsuxi314CdhNrbARZXmv9SN2fm4Z0qzVhkcjL08MQcf+CiPImAFwn5PDpbFU3pJgoExVBtNb/CgCXu4JQgvxTRPQPJeitRKVS6jOIKO0UdnQkS5OZb0fE24joFgCQTZKgR1QEUUrdioi7+JARRNzDGDPLB1/68UHqbElLBWaeItXwx//barXeQcSXmHnO+H87x3Bq/0y2n3jnnxsNQYaHh1dvNps+HXTz5rPRIhfMoOmKhiAePJx/aO2E8iJs0Ba8a7wxEaS2rd1FgL4BEf3SNSlJ3h8EYiKIfF4q3aO8GVmW7To2NibdbtMIFIGYCOJjNcEDieiKQNdGcjumb9K11u8CwEd8yiozH9/5bsQnt5IvDgjEdAV5vYJTuw7QzhM9iogudJ2U5P1BICaCPAoAG/kDLUCr1dq52Wz+l08+JV/cEIiJIF585zARfkRc1xjztFtKkrRPCERDkDzPz5V7fp/AJaIRAJjrk0/JFzcEoiFIpyDDXW7hlyr9P51TvaUaScrLRSAaggCAfF4rD+qLlQtZd9rlOwtr7bndSScpXxGIiSCglLoRET/vA9jMvLW19gEffEk+9I5AVATRWh8EAN/vHY7CZv6CiDYrTFtSVBsCURFEUNRa/xwAtqkN0fcN709EV9fsQzJfAALRESTP8+nMLFu+tQxEvMsYM60W48lo4QhERxBBSCn1I0T8XOFodaEwy7JdxsbGpFBdGhEgECVBAGBZrfUTALBalTlCxLOMMadUaTPZKheBWAkiZf/XYeanyoXvb9qZ+VZrbaV1uKqKbZDtREuQzgP7pu3CA9JApuyRPq8tG+Ga9EdNkA6mf6e1vgYAti8J40OI6JKSdCe1NSMwCAQRiIe11hcBgLwnKWo8iYjnhFJFsaigB03PoBBkXl6VUtsgovQImd5Hop9j5hnW2hnpIGIfKAYydaAIMp4TpdRnEXEqAMivm7q07zDz3Yh4NxHdBAAvB5Lf5GafCAwkQSZiNjw8vFq7wc5GrVZrTUSc92PmN9olOJ9h5nk/a+29feKcpgeKwMATJNC8JbcrQiARpCKgk5kwEUgECTNvyeuKEEgEqQjoZCZMBBJBwsxb8roiBBJBKgI6mQkTgUSQMPOWvK4IgUSQioBOZsJE4P8ADaYPQb3b1cAAAAAASUVORK5CYII=;" vertex="1" parent="1">
          <mxGeometry x="395" y="325" width="40" height="40" as="geometry" />
        </mxCell>
        <mxCell id="SUEe3mXOdW9LNbR-s6AG-15" value="" style="endArrow=classic;html=1;rounded=0;" edge="1" parent="1">
          <mxGeometry width="50" height="50" relative="1" as="geometry">
            <mxPoint x="327.5" y="300" as="sourcePoint" />
            <mxPoint x="327.5" y="240" as="targetPoint" />
          </mxGeometry>
        </mxCell>
        <mxCell id="SUEe3mXOdW9LNbR-s6AG-16" value="" style="endArrow=classic;html=1;rounded=0;" edge="1" parent="1">
          <mxGeometry width="50" height="50" relative="1" as="geometry">
            <mxPoint x="358" y="240" as="sourcePoint" />
            <mxPoint x="358" y="300" as="targetPoint" />
          </mxGeometry>
        </mxCell>
        <mxCell id="SUEe3mXOdW9LNbR-s6AG-17" value="mysql" style="text;html=1;strokeColor=none;fillColor=none;align=center;verticalAlign=middle;whiteSpace=wrap;rounded=0;" vertex="1" parent="1">
          <mxGeometry x="235" y="365" width="60" height="30" as="geometry" />
        </mxCell>
        <mxCell id="SUEe3mXOdW9LNbR-s6AG-18" value="redis" style="text;html=1;strokeColor=none;fillColor=none;align=center;verticalAlign=middle;whiteSpace=wrap;rounded=0;" vertex="1" parent="1">
          <mxGeometry x="318" y="365" width="60" height="30" as="geometry" />
        </mxCell>
        <mxCell id="SUEe3mXOdW9LNbR-s6AG-19" value="kafka" style="text;html=1;strokeColor=none;fillColor=none;align=center;verticalAlign=middle;whiteSpace=wrap;rounded=0;" vertex="1" parent="1">
          <mxGeometry x="385" y="365" width="60" height="30" as="geometry" />
        </mxCell>
      </root>
    </mxGraphModel>
  </diagram>
</mxfile>
